<svg width="470" height="570" viewBox="0 0 470 570" fill="none" xmlns="http://www.w3.org/2000/svg">
<rect x="220.5" y="375.5" width="248.564" height="194" rx="11.5" fill="white"/>
<rect x="220.5" y="375.5" width="248.564" height="194" rx="11.5" stroke="#D9D9D9"/>
<g clip-path="url(#clip0_69_2868)">
<path d="M340.96 451.976C342.106 450.713 343.999 451.082 345.258 451.973C346.879 453.12 347.343 455.215 347.582 457.072C347.987 460.215 348.107 464.658 351.671 465.972C353.318 466.579 355.203 466.078 356.594 465.092C358.113 464.015 359.061 462.359 359.695 460.642C360.464 458.564 360.909 456.34 361.286 454.162C361.671 451.935 361.924 449.684 362.037 447.426C362.149 445.217 362.076 443.023 361.988 440.816C361.92 439.092 361.894 437.283 362.476 435.635C363.064 433.97 364.431 432.704 366.228 432.537C367.973 432.375 369.77 433.111 371.032 434.298C374.061 437.147 374.203 441.799 374.88 445.619C375.236 447.626 375.756 449.657 376.846 451.403C377.742 452.839 378.988 454.043 380.423 454.936C383.317 456.738 387.004 457.264 390.216 456.026C393.351 454.817 395.875 452.176 396.967 449C397.237 448.216 397.403 447.406 397.488 446.582C397.527 446.199 396.928 446.202 396.889 446.582C396.53 450.085 394.281 453.257 391.2 454.918C388.03 456.628 384.191 456.411 381.093 454.639C379.57 453.767 378.246 452.538 377.325 451.04C376.209 449.222 375.731 447.104 375.383 445.024C374.755 441.268 374.47 436.955 371.655 434.07C369.472 431.833 365.454 430.936 363.107 433.427C360.691 435.993 361.415 440.126 361.492 443.311C361.605 447.975 361.124 452.65 360.058 457.192C359.594 459.17 359.061 461.209 357.896 462.904C356.832 464.453 355.092 465.654 353.155 465.635C351.224 465.616 349.866 464.196 349.181 462.504C348.457 460.718 348.41 458.79 348.159 456.905C347.93 455.174 347.511 453.26 346.213 451.993C345.204 451.009 343.707 450.375 342.287 450.601C341.605 450.71 340.999 451.042 340.536 451.552C340.277 451.837 340.7 452.262 340.96 451.976Z" fill="#00A9FF"/>
<path d="M427.544 516.029C427.206 515.46 425.748 516.069 425.479 515.553C425.212 515.039 426.568 514.255 427.342 512.465C427.482 512.143 428.362 510.109 427.71 509.481C426.475 508.291 420.824 513.201 418.847 511.594C418.413 511.242 418.11 510.538 416.796 509.395C416.273 508.94 415.957 508.735 415.652 508.812C415.218 508.92 415.183 509.501 414.718 510.642C414.02 512.355 413.608 512.251 413.201 513.618C412.899 514.632 412.968 515.222 412.613 515.336C412.11 515.499 411.648 514.423 411.011 514.52C410.361 514.618 409.968 515.87 409.844 516.808C409.611 518.568 410.257 519.729 410.616 520.951C411.005 522.278 411.236 524.296 410.337 527.153L401.439 552.223C403.403 547.078 409.091 532.976 411.481 527.736C412.171 526.223 412.933 524.689 414.497 524.083C416.003 523.5 418.072 523.848 420.708 523.213C421.016 523.139 421.871 522.921 421.978 522.419C422.067 522.003 421.565 521.771 421.642 521.382C421.746 520.86 422.734 520.854 423.949 520.251C424.805 519.827 425.339 519.322 425.798 518.887C425.936 518.756 427.993 516.786 427.544 516.029Z" fill="#F2F2F2"/>
<path d="M392.536 529.227C392.16 529.228 392.038 530.12 391.707 530.103C391.378 530.085 391.384 529.194 390.729 528.298C390.611 528.136 389.867 527.117 389.371 527.256C388.431 527.519 389.21 531.709 387.851 532.216C387.552 532.327 387.119 532.273 386.18 532.588C385.806 532.713 385.614 532.809 385.563 532.981C385.491 533.225 385.766 533.41 386.192 533.967C386.831 534.804 386.662 534.977 387.215 535.57C387.625 536.011 387.935 536.148 387.889 536.355C387.823 536.649 387.162 536.565 387.025 536.906C386.886 537.253 387.388 537.807 387.812 538.139C388.609 538.761 389.365 538.779 390.068 538.955C390.831 539.147 391.889 539.616 393.031 540.881L402.769 552.482C400.81 550.034 395.53 543.173 393.648 540.488C393.104 539.713 392.571 538.896 392.725 537.954C392.874 537.047 393.641 536.132 394.09 534.654C394.143 534.482 394.283 534 394.067 533.802C393.889 533.638 393.63 533.818 393.461 533.668C393.235 533.466 393.517 532.979 393.572 532.209C393.61 531.667 393.516 531.259 393.436 530.908C393.411 530.803 393.037 529.225 392.536 529.227Z" fill="#F2F2F2"/>
<path d="M400.045 530.912L399.819 528.888L399.922 528.734C400.402 528.025 400.646 527.332 400.649 526.674C400.649 526.569 400.645 526.465 400.64 526.358C400.62 525.936 400.596 525.411 400.869 524.799C401.023 524.458 401.454 523.668 402.102 523.766C402.276 523.79 402.408 523.871 402.509 523.964C402.523 523.941 402.538 523.918 402.555 523.892C402.756 523.584 402.916 523.452 403.07 523.325C403.188 523.227 403.311 523.127 403.502 522.888C403.586 522.784 403.652 522.692 403.707 522.615C403.875 522.381 404.094 522.102 404.48 522.107C404.892 522.127 405.108 522.468 405.251 522.694C405.507 523.096 405.623 523.387 405.699 523.579C405.727 523.65 405.759 523.729 405.775 523.753C405.908 523.949 406.989 523.766 407.396 523.7C408.31 523.547 409.102 523.415 409.428 523.992C409.661 524.404 409.488 524.95 408.896 525.656C408.712 525.876 408.516 526.043 408.342 526.174C408.486 526.26 408.615 526.392 408.668 526.6C408.791 527.09 408.369 527.582 407.414 528.063C407.177 528.183 406.858 528.343 406.411 528.421C406.2 528.457 406.011 528.466 405.849 528.471C405.845 528.564 405.823 528.666 405.766 528.771C405.598 529.079 405.249 529.225 404.724 529.19C404.145 529.16 403.668 529.049 403.248 528.952C402.881 528.868 402.565 528.797 402.317 528.814C401.856 528.851 401.501 529.219 401.085 529.697L400.045 530.912Z" fill="#F2F2F2"/>
<path d="M401.097 518.859L399.197 519.592L399.022 519.531C398.214 519.247 397.482 519.186 396.845 519.351C396.743 519.377 396.643 519.408 396.542 519.44C396.138 519.566 395.637 519.722 394.975 519.613C394.606 519.551 393.733 519.334 393.663 518.683C393.643 518.508 393.687 518.36 393.752 518.239C393.726 518.231 393.699 518.222 393.67 518.213C393.321 518.096 393.153 517.975 392.991 517.858C392.867 517.768 392.738 517.676 392.459 517.551C392.336 517.496 392.231 517.456 392.142 517.422C391.874 517.319 391.549 517.178 391.456 516.803C391.37 516.4 391.645 516.104 391.827 515.908C392.152 515.559 392.403 515.373 392.57 515.25C392.631 515.205 392.7 515.154 392.719 515.133C392.875 514.955 392.424 513.956 392.256 513.579C391.877 512.733 391.548 512.001 392.023 511.539C392.363 511.209 392.935 511.238 393.768 511.631C394.028 511.753 394.239 511.901 394.41 512.036C394.457 511.874 394.552 511.716 394.739 511.613C395.182 511.369 395.765 511.653 396.472 512.454C396.649 512.653 396.885 512.921 397.073 513.334C397.161 513.528 397.218 513.71 397.264 513.865C397.355 513.845 397.459 513.84 397.575 513.869C397.915 513.953 398.145 514.253 398.245 514.771C398.362 515.338 398.376 515.827 398.389 516.259C398.401 516.635 398.412 516.959 398.491 517.195C398.644 517.631 399.091 517.88 399.658 518.162L401.097 518.859Z" fill="#F2F2F2"/>
<path d="M400.045 512.896L399.819 510.871L399.922 510.718C400.402 510.008 400.646 509.315 400.649 508.657C400.649 508.553 400.645 508.448 400.64 508.342C400.62 507.919 400.596 507.394 400.869 506.783C401.023 506.441 401.454 505.652 402.102 505.749C402.276 505.774 402.408 505.854 402.509 505.948C402.523 505.924 402.538 505.901 402.555 505.875C402.756 505.568 402.916 505.436 403.07 505.309C403.188 505.211 403.311 505.11 403.502 504.872C403.586 504.767 403.652 504.675 403.707 504.598C403.875 504.364 404.094 504.086 404.48 504.091C404.892 504.11 405.108 504.451 405.251 504.677C405.507 505.08 405.623 505.37 405.699 505.563C405.727 505.633 405.759 505.712 405.775 505.737C405.908 505.932 406.989 505.749 407.396 505.683C408.31 505.53 409.102 505.398 409.428 505.975C409.661 506.388 409.488 506.933 408.896 507.64C408.712 507.86 408.516 508.027 408.342 508.158C408.486 508.244 408.615 508.376 408.668 508.583C408.791 509.074 408.369 509.565 407.414 510.046C407.177 510.167 406.858 510.327 406.411 510.404C406.2 510.44 406.011 510.449 405.849 510.454C405.845 510.548 405.823 510.649 405.766 510.754C405.598 511.062 405.249 511.209 404.724 511.173C404.145 511.143 403.668 511.033 403.248 510.936C402.881 510.852 402.565 510.78 402.317 510.797C401.856 510.834 401.501 511.203 401.085 511.681L400.045 512.896Z" fill="#F2F2F2"/>
<path d="M402.117 552.19L401.692 551.924L401.198 551.98C401.19 551.934 401.163 551.829 401.123 551.664C400.901 550.759 400.226 548.004 399.663 543.666C399.27 540.638 399.048 537.525 399.002 534.411C398.956 531.293 399.104 528.933 399.222 527.036C399.311 525.605 399.42 524.242 399.526 522.915C399.81 519.368 400.077 516.019 399.878 512.31C399.834 511.482 399.742 509.759 398.735 507.925C398.151 506.862 397.347 505.917 396.344 505.12L396.967 504.336C398.074 505.218 398.964 506.264 399.613 507.444C400.729 509.477 400.83 511.355 400.878 512.257C401.081 516.031 400.81 519.413 400.524 522.994C400.418 524.316 400.31 525.673 400.221 527.098C400.104 528.978 399.957 531.318 400.003 534.396C400.048 537.472 400.268 540.547 400.655 543.537C401.211 547.82 401.877 550.534 402.095 551.425C402.211 551.901 402.236 552.001 402.117 552.19Z" fill="#F2F2F2"/>
<path d="M394.508 506.71C394.467 506.71 394.425 506.709 394.383 506.706C393.531 506.66 392.742 506.15 392.037 505.19C391.707 504.739 391.537 504.224 391.2 503.196C391.148 503.038 390.894 502.234 390.739 501.129C390.638 500.407 390.651 500.104 390.794 499.838C390.953 499.54 391.21 499.333 391.499 499.193C391.487 499.098 391.497 498.999 391.538 498.898C391.709 498.481 392.163 498.536 392.408 498.562C392.532 498.578 392.687 498.598 392.854 498.589C393.117 498.577 393.258 498.498 393.472 498.381C393.677 498.269 393.932 498.129 394.31 498.052C395.054 497.896 395.678 498.108 395.884 498.177C396.967 498.538 397.5 499.379 398.118 500.354C398.241 500.549 398.664 501.261 398.943 502.236C399.145 502.94 399.116 503.253 399.056 503.486C398.932 503.963 398.642 504.237 397.903 504.841C397.132 505.474 396.745 505.79 396.413 505.983C395.639 506.43 395.153 506.71 394.508 506.71Z" fill="#F2F2F2"/>
<path d="M373.33 427.401H359.662C359.317 427.401 359.037 427.121 359.037 426.776C359.037 426.432 359.317 426.152 359.662 426.152H373.33C373.675 426.152 373.955 426.432 373.955 426.776C373.955 427.121 373.675 427.401 373.33 427.401Z" fill="#E6E6E6"/>
<path d="M394.5 463.749H380.831C380.487 463.749 380.206 463.468 380.206 463.124C380.206 462.779 380.487 462.499 380.831 462.499H394.5C394.844 462.499 395.125 462.779 395.125 463.124C395.125 463.468 394.844 463.749 394.5 463.749Z" fill="#E6E6E6"/>
<path d="M405.683 488.513H392.015C391.671 488.513 391.39 488.232 391.39 487.888C391.39 487.543 391.671 487.263 392.015 487.263H405.683C406.028 487.263 406.308 487.543 406.308 487.888C406.308 488.232 406.028 488.513 405.683 488.513Z" fill="#E6E6E6"/>
<path d="M343.374 413.821H329.706C329.361 413.821 329.081 413.541 329.081 413.196C329.081 412.852 329.361 412.571 329.706 412.571H343.374C343.719 412.571 343.999 412.852 343.999 413.196C343.999 413.541 343.719 413.821 343.374 413.821Z" fill="#E6E6E6"/>
<path d="M240 551.724C240 551.988 240.212 552.199 240.475 552.199H449.088C449.352 552.199 449.564 551.988 449.564 551.724C449.564 551.46 449.352 551.249 449.088 551.249H240.475C240.212 551.249 240 551.46 240 551.724Z" fill="#CCCCCC"/>
<path d="M398.669 481.261H336.719C336.498 481.261 336.319 481.082 336.319 480.861V421.747C336.319 421.527 336.498 421.348 336.719 421.348C336.939 421.348 337.118 421.527 337.118 421.747V445.868C337.118 464.974 352.606 480.462 371.712 480.462H398.669C398.889 480.462 399.068 480.641 399.068 480.861C399.068 481.082 398.889 481.261 398.669 481.261Z" fill="#E6E6E6"/>
<path d="M349.765 457.503H336.096C335.752 457.503 335.471 457.223 335.471 456.878C335.471 456.534 335.752 456.253 336.096 456.253H349.765C350.109 456.253 350.39 456.534 350.39 456.878C350.39 457.223 350.109 457.503 349.765 457.503Z" fill="#E6E6E6"/>
<path d="M336.212 459.282C338.38 458.566 339.768 456.867 339.312 455.487C338.856 454.108 336.729 453.57 334.561 454.287C333.691 454.561 332.899 455.04 332.252 455.683L323.105 458.832L324.675 463.093L333.525 459.536C334.428 459.667 335.349 459.58 336.212 459.282Z" fill="#FFB6B6"/>
<path d="M289.195 483.701C289.269 485.983 290.507 487.794 291.959 487.747C293.411 487.699 294.527 485.811 294.453 483.529C294.436 482.617 294.201 481.722 293.767 480.919L293.331 471.256L288.801 471.557L289.711 481.052C289.33 481.881 289.153 482.789 289.195 483.701Z" fill="#FFB6B6"/>
<path d="M299.655 548.816L303.699 548.815L304.735 533.114L299.654 533.217L299.655 548.816Z" fill="#FFB6B6"/>
<path d="M313.51 548.724C313.636 548.936 313.702 549.62 313.702 549.867C313.702 550.625 313.088 551.239 312.33 551.239H299.806C299.289 551.239 298.87 550.82 298.87 550.303V549.782C298.87 549.782 298.25 548.215 299.526 546.283C299.526 546.283 301.111 547.796 303.48 545.427L304.178 544.161L309.235 547.859L312.037 548.204C312.651 548.28 313.194 548.193 313.51 548.724Z" fill="#2F2E41"/>
<path d="M309.241 548.816L313.285 548.815L314.321 533.114L309.24 533.217L309.241 548.816Z" fill="#FFB6B6"/>
<path d="M323.096 548.724C323.222 548.936 323.288 549.62 323.288 549.867C323.288 550.625 322.674 551.239 321.916 551.239H309.392C308.875 551.239 308.456 550.82 308.456 550.303V549.782C308.456 549.782 307.836 548.215 309.112 546.283C309.112 546.283 310.697 547.796 313.066 545.427L313.764 544.161L318.821 547.859L321.624 548.204C322.237 548.28 322.78 548.193 323.096 548.724Z" fill="#2F2E41"/>
<path d="M302.008 431.867C305.293 431.867 307.957 429.203 307.957 425.918C307.957 422.633 305.293 419.969 302.008 419.969C298.723 419.969 296.059 422.633 296.059 425.918C296.059 429.203 298.723 431.867 302.008 431.867Z" fill="#FFB6B6"/>
<path d="M293.777 475.397L296.573 515.339L298.171 542.101L305.76 541.701L304.961 512.544L306.559 494.57L308.955 541.701H314.995L317.343 475.797L304.362 474L293.777 475.397Z" fill="#2F2E41"/>
<path d="M304.162 430.663C302.47 432.291 298.56 431.211 296.573 430.663C295.479 430.36 294.819 430.049 294.576 429.464C294.407 429.058 294.503 428.672 294.176 427.867C293.985 427.395 293.884 427.36 293.777 427.068C293.478 426.254 293.894 425.53 294.176 424.671C294.767 422.88 294.062 422.679 294.576 421.476C295.349 419.668 297.45 418.932 298.171 418.68C299.516 418.209 300.638 418.259 300.967 418.281C303.074 418.419 304.482 419.5 304.961 419.878C305.93 420.644 306.406 421.454 307.357 423.074C308.185 424.483 308.245 425.024 308.156 425.47C308.02 426.15 307.628 426.152 307.357 427.068C307.05 428.107 307.4 428.629 306.958 429.065C306.659 429.359 306.382 429.237 305.76 429.464C304.903 429.777 304.481 430.356 304.162 430.663Z" fill="#2F2E41"/>
<path d="M308.955 436.654C308.955 436.654 302.964 429.065 295.375 431.861L292.917 436.654L292.096 437.431C288.651 440.692 287.049 445.449 287.818 450.129L291.381 471.803C291.381 471.803 290.981 480.191 293.777 482.587C293.777 482.587 297.771 474.998 307.357 478.593C316.944 482.188 318.941 480.191 318.941 480.191L315.745 457.424L308.955 436.654Z" fill="#2F2E41"/>
<path d="M306.958 437.852L304.961 442.246L312.55 467.809L333.32 460.22L330.524 455.427L320.538 458.223C320.538 458.223 312.949 435.855 306.958 437.852Z" fill="#2F2E41"/>
<path d="M292.779 477.994H288.385L287.586 446.04L292.779 456.824V477.994Z" fill="#2F2E41"/>
<path d="M340.908 453.629C341.901 453.629 342.706 452.824 342.706 451.832C342.706 450.839 341.901 450.034 340.908 450.034C339.916 450.034 339.111 450.839 339.111 451.832C339.111 452.824 339.916 453.629 340.908 453.629Z" fill="#3F3D56"/>
<path d="M352.891 467.609C353.884 467.609 354.689 466.804 354.689 465.811C354.689 464.819 353.884 464.014 352.891 464.014C351.899 464.014 351.094 464.819 351.094 465.811C351.094 466.804 351.899 467.609 352.891 467.609Z" fill="#3F3D56"/>
<path d="M366.472 434.058C367.464 434.058 368.269 433.253 368.269 432.26C368.269 431.267 367.464 430.463 366.472 430.463C365.479 430.463 364.674 431.267 364.674 432.26C364.674 433.253 365.479 434.058 366.472 434.058Z" fill="#3F3D56"/>
<path d="M386.442 458.023C387.435 458.023 388.24 457.218 388.24 456.225C388.24 455.233 387.435 454.428 386.442 454.428C385.45 454.428 384.645 455.233 384.645 456.225C384.645 457.218 385.45 458.023 386.442 458.023Z" fill="#3F3D56"/>
<path d="M398.026 448.437C399.019 448.437 399.823 447.632 399.823 446.639C399.823 445.647 399.019 444.842 398.026 444.842C397.033 444.842 396.229 445.647 396.229 446.639C396.229 447.632 397.033 448.437 398.026 448.437Z" fill="#3F3D56"/>
<path d="M394.602 408.504L397.889 410.061C396.541 408.18 395.379 405.241 394.757 402.903C393.704 405.081 392.006 407.746 390.326 409.338L393.8 408.444C391.659 418.936 383.607 426.469 374.386 426.469L374.256 426.848C383.887 426.848 392.416 419.42 394.602 408.504Z" fill="#3F3D56"/>
<path d="M384.664 392.518H405.434C406.315 392.518 407.032 393.235 407.032 394.116C407.032 394.997 406.315 395.713 405.434 395.713H384.664C383.783 395.713 383.067 394.997 383.067 394.116C383.067 393.235 383.783 392.518 384.664 392.518Z" fill="#00A9FF"/>
<path d="M398.696 484.53C398.477 484.53 398.256 484.481 398.046 484.382C397.527 484.139 397.201 483.651 397.174 483.079L396.959 478.435C396.931 477.838 397.243 477.296 397.771 477.019C398.3 476.742 398.924 476.796 399.398 477.158L402.56 479.577C402.941 479.868 403.158 480.309 403.156 480.787C403.155 481.266 402.935 481.706 402.553 481.995L399.606 484.22C399.333 484.425 399.017 484.53 398.696 484.53Z" fill="#E6E6E6"/>
<path d="M340.392 422.135C340.392 422.354 340.343 422.575 340.245 422.785C340.001 423.304 339.513 423.63 338.941 423.656L334.297 423.872C333.701 423.899 333.158 423.588 332.881 423.059C332.604 422.53 332.658 421.907 333.02 421.433L335.439 418.27C335.73 417.89 336.171 417.673 336.649 417.674C337.128 417.676 337.568 417.896 337.857 418.278L340.082 421.225C340.287 421.497 340.392 421.814 340.392 422.135Z" fill="#E6E6E6"/>
<path d="M366.324 418.022C363.96 417.456 361.433 417.968 359.412 419.303C357.292 420.704 355.889 422.946 355.414 425.43C354.434 430.554 357.428 435.674 362.16 437.713C367.134 439.858 373.052 438.419 376.665 434.439C378.455 432.467 379.574 429.972 379.911 427.333C380.243 424.733 379.864 421.734 378.29 419.564C376.729 417.412 374.129 416.69 371.618 416.337C369.182 415.995 365.95 415.846 364.632 418.425C364.381 418.917 364.263 419.447 364.291 419.998C364.31 420.382 364.909 420.384 364.89 419.998C364.829 418.792 365.633 417.785 366.663 417.243C367.857 416.615 369.298 416.668 370.6 416.808C372.951 417.061 375.62 417.512 377.316 419.317C379.005 421.116 379.511 423.857 379.406 426.245C379.297 428.737 378.438 431.19 376.933 433.183C373.964 437.116 368.769 438.988 363.99 437.717C359.334 436.479 359.273 433.716 359.35 428.822C359.391 426.211 356.925 422.101 358.938 420.4C360.909 418.734 363.642 417.995 366.165 418.6C366.54 418.689 366.7 418.112 366.324 418.022Z" fill="#00A9FF"/>
</g>
<rect x="0.5" y="229.109" width="249.423" height="185" rx="11.5" fill="white"/>
<rect x="0.5" y="229.109" width="249.423" height="185" rx="11.5" stroke="#D9D9D9"/>
<g clip-path="url(#clip1_69_2868)">
<path d="M205.825 391.541L202.305 391.541L200.63 377.962L205.826 377.962L205.825 391.541Z" fill="#FFB8B8"/>
<path d="M206.723 394.953L195.372 394.953V394.809C195.372 393.637 195.837 392.514 196.666 391.685C197.494 390.857 198.618 390.391 199.79 390.391H199.79L206.723 390.391L206.723 394.953Z" fill="#2F2E41"/>
<path d="M221.362 382.886L219.077 385.564L207.661 378.024L211.033 374.072L221.362 382.886Z" fill="#FFB8B8"/>
<path d="M224.541 384.418L217.173 393.053L217.063 392.96C216.172 392.199 215.619 391.115 215.527 389.947C215.434 388.779 215.81 387.622 216.57 386.731L216.571 386.731L221.071 381.457L224.541 384.418Z" fill="#2F2E41"/>
<path d="M180.829 324.764L179.733 334.87L224.031 334.238L204.712 302.76L188.939 302.193L180.829 324.764Z" fill="#2F2E41"/>
<path opacity="0.28" d="M180.829 324.764L179.733 334.87L224.031 334.238L204.712 302.76L188.939 302.193L180.829 324.764Z" fill="black"/>
<path d="M189.539 326.499L187.976 335.746V344.011L200.585 348.127C200.585 348.127 199.109 380.232 201.076 382.277L201.028 387.213L206.529 387.463L206.574 383.989L208.906 358.022L210.279 338.957L208.052 324.503L189.539 326.499Z" fill="#2F2E41"/>
<path d="M199.308 334.459L187.976 344.011C187.976 344.011 187.312 361.246 188.997 363.268C190.443 365.004 209.259 379.978 209.259 379.978C209.259 379.978 212.603 383.045 214.477 383.094C216.351 383.143 218.53 379.212 218.53 379.212L214.19 375.915C214.19 375.915 202.947 365.419 199.608 361.246C198.261 359.562 198.261 359.394 198.261 359.394L198.721 352.389L203.353 339.39L199.308 334.459Z" fill="#2F2E41"/>
<path d="M187.277 288.701L182.39 288.25L177.958 288.988L168.574 288.991L167.774 295.793L176.338 297.709L178.425 296.687L187.125 300.001L187.277 288.701Z" fill="#2F2E41"/>
<path d="M193.113 288.68C193.113 288.68 203.482 287.708 205.84 289.561C208.198 291.414 213.251 328.132 213.251 328.132L193.113 329.269L189.502 326.785L190.527 308.453L193.113 288.68Z" fill="#CCCCCC"/>
<path d="M196.278 288.451L184.839 288.702L174.175 336.891L182.596 338.744L196.278 288.451Z" fill="#2F2E41"/>
<path d="M204.409 288.044L213.419 290.864L212.908 310.663L224.031 334.335L210.955 335.712L200.619 310.151L204.409 288.044Z" fill="#2F2E41"/>
<path d="M219.267 336.739C219.583 336.461 219.834 336.117 220.003 335.731C220.171 335.346 220.253 334.928 220.243 334.507C220.233 334.086 220.13 333.673 219.943 333.296C219.755 332.919 219.487 332.588 219.158 332.326L220.971 326.003L217.397 323.964L214.962 332.93C214.559 333.512 214.382 334.222 214.467 334.926C214.552 335.629 214.892 336.277 215.423 336.747C215.954 337.216 216.638 337.475 217.347 337.473C218.055 337.472 218.739 337.211 219.267 336.739Z" fill="#FFB8B8"/>
<path d="M208.198 291.414L213.53 290.951C213.53 290.951 218.316 295.957 219.405 299.833C220.494 303.709 221.673 315.837 221.673 315.837L221.181 333.578L214.949 329.346L214.531 314.086L208.198 291.414Z" fill="#2F2E41"/>
<path d="M206.912 282.497C208.914 278.834 207.568 274.242 203.906 272.24C200.243 270.238 195.651 271.584 193.649 275.246C191.647 278.909 192.993 283.501 196.656 285.503C200.318 287.505 204.91 286.159 206.912 282.497Z" fill="#FFB8B8"/>
<path d="M199.438 275.716C198.447 275.487 197.417 275.741 196.413 275.906C195.409 276.07 194.302 276.125 193.452 275.564C192.825 275.15 192.439 274.466 192.077 273.807C191.926 273.572 191.825 273.308 191.781 273.032C191.738 272.545 192.048 272.101 192.377 271.739C193.905 270.059 196.139 269.14 198.391 268.848C200.248 268.571 202.146 268.803 203.882 269.518C205.591 270.268 207.061 271.641 207.733 273.383C208.043 274.274 208.236 275.202 208.308 276.143C208.41 276.835 208.423 277.537 208.347 278.233C208.256 278.748 208.121 279.255 207.942 279.747L206.829 283.109C206.748 283.426 206.599 283.722 206.391 283.975C206.284 284.099 206.139 284.185 205.98 284.22C205.82 284.255 205.653 284.237 205.504 284.17C205.593 283.804 205.606 283.425 205.544 283.054C205.509 282.87 205.42 282.7 205.287 282.566C205.155 282.433 204.986 282.342 204.801 282.306C204.391 282.262 204.04 282.58 203.651 282.717C203.473 282.77 203.286 282.787 203.101 282.768C202.916 282.748 202.737 282.693 202.574 282.604C202.41 282.515 202.266 282.396 202.149 282.251C202.032 282.107 201.945 281.941 201.892 281.763C201.881 281.727 201.872 281.69 201.864 281.654C201.803 281.269 201.906 280.858 201.76 280.497C201.59 280.074 201.137 279.852 200.797 279.549C200.487 279.262 200.265 278.893 200.157 278.485C200.049 278.077 200.06 277.646 200.189 277.244C200.28 276.964 200.537 276.837 200.485 276.516C200.418 276.094 199.796 275.799 199.438 275.716Z" fill="#2F2E41"/>
<path d="M115.415 307.663H20V247.975H115.415V307.663Z" fill="white"/>
<path d="M115.415 307.663H20V247.975H115.415V307.663ZM20.4357 307.228H114.979V248.411H20.4357V307.228Z" fill="#3F3D56"/>
<path d="M103.76 390.335H49.2998V330.646H103.76V390.335Z" fill="white"/>
<path d="M103.76 390.335H49.2998V330.646H103.76V390.335ZM49.7355 389.899H103.325V331.082H49.7355V389.899Z" fill="#3F3D56"/>
<path d="M96.3537 384.697H85.0259V385.157H96.3537V384.697Z" fill="#3F3D56"/>
<path d="M96.3537 386.075H85.0259V386.535H96.3537V386.075Z" fill="#3F3D56"/>
<path d="M96.3537 387.453H85.0259V387.912H96.3537V387.453Z" fill="#3F3D56"/>
<path d="M76.53 341.32V346.113C79.3736 346.113 82.1534 346.956 84.5178 348.536C86.8821 350.115 88.7249 352.361 89.8132 354.988C90.9014 357.615 91.1861 360.506 90.6313 363.295C90.0766 366.084 88.7072 368.646 86.6965 370.657L90.0853 374.045C92.7663 371.364 94.5921 367.949 95.3318 364.23C96.0714 360.511 95.6918 356.657 94.2409 353.154C92.7899 349.651 90.3329 346.657 87.1804 344.551C84.0278 342.444 80.3215 341.32 76.53 341.32Z" fill="#E6E6E6"/>
<path d="M90.0853 374.046L86.6965 370.657C84.2384 373.115 80.9725 374.6 77.5039 374.835C74.0352 375.07 70.5989 374.04 67.8314 371.936L64.9307 375.753C68.6212 378.558 73.2032 379.93 77.8281 379.616C82.453 379.303 86.8075 377.323 90.0853 374.046Z" fill="#575A89"/>
<path d="M62.1524 360.49C62.1524 358.602 62.5243 356.732 63.2468 354.988C63.9693 353.244 65.0284 351.659 66.3635 350.324C67.6986 348.989 69.2835 347.93 71.0279 347.207C72.7723 346.484 74.6419 346.113 76.5299 346.113V341.32C72.5169 341.32 68.605 342.579 65.3458 344.921C62.0865 347.262 59.6441 350.567 58.363 354.37C57.0818 358.173 57.0265 362.282 58.2048 366.118C59.3831 369.955 61.7355 373.324 64.9306 375.752L67.8313 371.936C66.0651 370.596 64.6333 368.865 63.648 366.88C62.6627 364.894 62.1508 362.707 62.1524 360.49Z" fill="#00A9FF"/>
<path d="M184.362 353.301H129.901V293.613H184.362V353.301Z" fill="white"/>
<path d="M184.362 353.301H129.901V293.613H184.362V353.301ZM130.337 352.866H183.926V294.048H130.337V352.866Z" fill="#3F3D56"/>
<path d="M147.546 330.101H137.743V345.786H147.546V330.101Z" fill="#575A89"/>
<path d="M161.706 319.427H151.903V345.786H161.706V319.427Z" fill="#E6E6E6"/>
<path d="M175.866 307.01H166.063V345.786H175.866V307.01Z" fill="#00A9FF"/>
<path d="M179.133 346.222H135.129V300.693H135.565V345.786H179.133V346.222Z" fill="#3F3D56"/>
<path d="M168.524 295.202C170.181 295.202 171.525 293.858 171.525 292.201C171.525 290.544 170.181 289.201 168.524 289.201C166.867 289.201 165.524 290.544 165.524 292.201C165.524 293.858 166.867 295.202 168.524 295.202Z" fill="#FFB8B8"/>
<path d="M230.174 395.243H183.418C183.351 395.243 183.288 395.217 183.241 395.17C183.194 395.123 183.168 395.06 183.168 394.993C183.168 394.927 183.194 394.863 183.241 394.816C183.288 394.769 183.351 394.743 183.418 394.743H230.174C230.24 394.743 230.303 394.769 230.35 394.816C230.397 394.863 230.424 394.927 230.424 394.993C230.424 395.06 230.397 395.123 230.35 395.17C230.303 395.217 230.24 395.243 230.174 395.243Z" fill="#CCCCCC"/>
<path d="M102.164 295.18H33.2508C33.1936 295.18 33.1388 295.158 33.0983 295.117C33.0579 295.077 33.0352 295.022 33.0352 294.965V261.935C33.0352 261.877 33.0579 261.823 33.0983 261.782C33.1388 261.742 33.1936 261.719 33.2508 261.719C33.308 261.719 33.3629 261.742 33.4033 261.782C33.4438 261.823 33.4665 261.877 33.4665 261.935V294.749H102.164C102.192 294.749 102.22 294.754 102.247 294.765C102.273 294.776 102.297 294.792 102.317 294.812C102.337 294.832 102.353 294.856 102.364 294.882C102.375 294.908 102.38 294.936 102.38 294.965C102.38 294.993 102.375 295.021 102.364 295.047C102.353 295.074 102.337 295.097 102.317 295.117C102.297 295.137 102.273 295.153 102.247 295.164C102.22 295.175 102.192 295.18 102.164 295.18Z" fill="#3F3D56"/>
<path d="M47.9745 292.808H41.7066C41.5369 292.808 41.3742 292.74 41.2541 292.62C41.1341 292.5 41.0666 292.338 41.0664 292.168V283.527C41.0666 283.358 41.1341 283.195 41.2541 283.075C41.3742 282.955 41.5369 282.888 41.7066 282.887H47.9745C48.1443 282.888 48.307 282.955 48.427 283.075C48.547 283.195 48.6145 283.358 48.6147 283.527V292.168C48.6145 292.338 48.547 292.5 48.427 292.62C48.307 292.74 48.1443 292.808 47.9745 292.808Z" fill="#00A9FF"/>
<path d="M59.4049 292.808H53.137C52.9673 292.808 52.8046 292.74 52.6846 292.62C52.5645 292.5 52.497 292.338 52.4968 292.168V275.332C52.497 275.162 52.5645 275 52.6846 274.88C52.8046 274.76 52.9673 274.692 53.137 274.692H59.4049C59.5747 274.692 59.7374 274.76 59.8574 274.88C59.9774 275 60.0449 275.162 60.0452 275.332V292.168C60.0449 292.338 59.9774 292.5 59.8574 292.62C59.7374 292.74 59.5747 292.808 59.4049 292.808Z" fill="#00A9FF"/>
<path d="M70.8351 292.808H64.5672C64.3975 292.808 64.2348 292.74 64.1147 292.62C63.9947 292.5 63.9272 292.338 63.927 292.168V283.527C63.9272 283.358 63.9947 283.195 64.1147 283.075C64.2348 282.955 64.3975 282.888 64.5672 282.887H70.8351C71.0048 282.888 71.1676 282.955 71.2876 283.075C71.4076 283.195 71.4751 283.358 71.4753 283.527V292.168C71.4751 292.338 71.4076 292.5 71.2876 292.62C71.1676 292.74 71.0048 292.808 70.8351 292.808Z" fill="#00A9FF"/>
<path d="M82.2655 292.808H75.9976C75.8318 292.812 75.6713 292.749 75.5513 292.635C75.4313 292.52 75.3616 292.363 75.3574 292.197V272.068C75.3616 271.902 75.4313 271.745 75.5513 271.63C75.6713 271.516 75.8318 271.453 75.9976 271.457H82.2655C82.4314 271.453 82.5919 271.516 82.7119 271.63C82.8319 271.745 82.9016 271.902 82.9057 272.068V292.197C82.9016 292.363 82.8319 292.52 82.7119 292.635C82.5919 292.749 82.4314 292.812 82.2655 292.808Z" fill="#00A9FF"/>
<path d="M93.6957 292.808H87.4278C87.2581 292.808 87.0954 292.74 86.9753 292.62C86.8553 292.5 86.7878 292.338 86.7876 292.168V266.274C86.7878 266.104 86.8553 265.942 86.9753 265.822C87.0954 265.702 87.2581 265.634 87.4278 265.634H93.6957C93.8654 265.634 94.0282 265.702 94.1482 265.822C94.2682 265.942 94.3357 266.104 94.3359 266.274V292.168C94.3357 292.338 94.2682 292.5 94.1482 292.62C94.0282 292.74 93.8654 292.808 93.6957 292.808Z" fill="#00A9FF"/>
<path d="M44.8406 280.299C45.5553 280.299 46.1346 279.72 46.1346 279.005C46.1346 278.291 45.5553 277.711 44.8406 277.711C44.126 277.711 43.5466 278.291 43.5466 279.005C43.5466 279.72 44.126 280.299 44.8406 280.299Z" fill="#3F3D56"/>
<path d="M56.2708 271.888C56.9855 271.888 57.5648 271.309 57.5648 270.594C57.5648 269.88 56.9855 269.3 56.2708 269.3C55.5561 269.3 54.9768 269.88 54.9768 270.594C54.9768 271.309 55.5561 271.888 56.2708 271.888Z" fill="#3F3D56"/>
<path d="M67.7012 280.299C68.4159 280.299 68.9952 279.72 68.9952 279.005C68.9952 278.291 68.4159 277.711 67.7012 277.711C66.9866 277.711 66.4072 278.291 66.4072 279.005C66.4072 279.72 66.9866 280.299 67.7012 280.299Z" fill="#3F3D56"/>
<path d="M79.1316 267.791C79.8463 267.791 80.4256 267.211 80.4256 266.497C80.4256 265.782 79.8463 265.203 79.1316 265.203C78.417 265.203 77.8376 265.782 77.8376 266.497C77.8376 267.211 78.417 267.791 79.1316 267.791Z" fill="#3F3D56"/>
<path d="M90.5618 263.046C91.2765 263.046 91.8558 262.467 91.8558 261.752C91.8558 261.037 91.2765 260.458 90.5618 260.458C89.8472 260.458 89.2678 261.037 89.2678 261.752C89.2678 262.467 89.8472 263.046 90.5618 263.046Z" fill="#3F3D56"/>
<path d="M67.7283 279.295L56.2709 270.713L44.9697 279.178L44.7112 278.833L56.2709 270.174L67.6738 278.715L79.0054 266.315L79.0509 266.297L90.4811 261.691L90.6423 262.091L79.2574 266.678L67.7283 279.295Z" fill="#3F3D56"/>
</g>
<rect x="190.5" y="0.5" width="279" height="248.168" rx="11.5" fill="white"/>
<rect x="190.5" y="0.5" width="279" height="248.168" rx="11.5" stroke="#D9D9D9"/>
<g clip-path="url(#clip2_69_2868)">
<path d="M322.317 225.627C322.403 225.631 322.488 225.609 322.56 225.563C322.633 225.517 322.689 225.45 322.722 225.371C322.755 225.292 322.763 225.204 322.745 225.121C322.727 225.037 322.683 224.961 322.62 224.903L322.592 224.789L322.603 224.761C322.689 224.558 322.834 224.384 323.019 224.262C323.203 224.14 323.42 224.076 323.641 224.076C323.862 224.077 324.079 224.143 324.262 224.267C324.446 224.39 324.589 224.565 324.674 224.769C325.013 225.585 325.444 226.402 325.55 227.265C325.597 227.646 325.577 228.032 325.492 228.407C326.287 226.671 326.701 224.785 326.703 222.876C326.703 222.397 326.677 221.918 326.624 221.442C326.579 221.052 326.518 220.665 326.44 220.28C326.014 218.192 325.098 216.236 323.769 214.571C323.126 214.22 322.605 213.68 322.278 213.024C322.159 212.788 322.076 212.536 322.029 212.277C322.17 211.905 322.244 211.511 322.248 211.113C322.349 210.959 322.53 210.883 322.641 210.733C323.19 209.988 323.947 210.118 324.342 211.131C325.187 211.557 325.195 212.263 324.677 212.943C324.347 213.375 324.302 213.96 324.013 214.423C324.043 214.461 324.074 214.498 324.103 214.536C324.647 215.235 325.121 215.986 325.518 216.778C325.422 215.891 325.537 214.994 325.855 214.16C326.177 213.383 326.781 212.729 327.312 212.057C327.453 211.877 327.644 211.742 327.861 211.67C328.078 211.598 328.312 211.592 328.532 211.653C328.753 211.714 328.95 211.839 329.1 212.012C329.249 212.185 329.344 212.398 329.373 212.625L329.376 212.655C329.297 212.699 329.22 212.747 329.144 212.797C329.049 212.86 328.975 212.951 328.933 213.057C328.89 213.163 328.881 213.279 328.905 213.391C328.93 213.503 328.988 213.604 329.071 213.682C329.155 213.76 329.26 213.811 329.373 213.829L329.384 213.831C329.356 214.115 329.306 214.397 329.235 214.674C329.917 217.312 328.445 218.272 326.343 218.315C326.296 218.339 326.251 218.363 326.205 218.386C326.604 219.517 326.854 220.695 326.95 221.891C327.004 222.596 327 223.305 326.94 224.01L326.944 223.985C327.096 223.201 327.514 222.494 328.128 221.983C329.039 221.234 330.326 220.959 331.309 220.357C331.413 220.29 331.535 220.254 331.659 220.254C331.783 220.253 331.905 220.289 332.009 220.355C332.114 220.422 332.198 220.517 332.25 220.629C332.303 220.742 332.322 220.867 332.306 220.99L332.302 221.016C332.155 221.076 332.013 221.145 331.875 221.222C331.796 221.267 331.718 221.314 331.643 221.364C331.548 221.428 331.474 221.518 331.432 221.624C331.389 221.73 331.379 221.847 331.404 221.958C331.429 222.07 331.487 222.171 331.57 222.249C331.653 222.328 331.758 222.379 331.871 222.396L331.883 222.398L331.907 222.401C331.656 222.999 331.305 223.549 330.868 224.028C330.442 226.33 328.61 226.549 326.651 225.878H326.65C326.435 226.812 326.123 227.722 325.72 228.591H322.401C322.389 228.554 322.378 228.516 322.367 228.479C322.675 228.499 322.983 228.48 323.286 228.425C323.04 228.123 322.793 227.818 322.547 227.516C322.541 227.51 322.536 227.504 322.531 227.498C322.407 227.343 322.28 227.19 322.155 227.035C322.149 226.561 322.203 226.087 322.317 225.627Z" fill="#F2F2F2"/>
<path d="M239.601 225.627C239.515 225.631 239.431 225.609 239.358 225.563C239.286 225.517 239.229 225.45 239.196 225.371C239.163 225.292 239.155 225.204 239.173 225.121C239.191 225.037 239.235 224.961 239.298 224.903L239.327 224.789L239.315 224.761C239.229 224.558 239.084 224.384 238.9 224.262C238.715 224.14 238.498 224.076 238.277 224.076C238.056 224.077 237.84 224.143 237.656 224.267C237.472 224.39 237.329 224.565 237.244 224.769C236.906 225.585 236.474 226.402 236.368 227.265C236.321 227.646 236.341 228.032 236.426 228.407C235.631 226.671 235.218 224.785 235.215 222.876C235.215 222.397 235.242 221.918 235.295 221.442C235.339 221.052 235.4 220.665 235.478 220.28C235.904 218.192 236.82 216.236 238.149 214.571C238.793 214.22 239.313 213.68 239.64 213.024C239.759 212.788 239.843 212.536 239.889 212.277C239.748 211.905 239.674 211.511 239.67 211.113C239.569 210.959 239.388 210.883 239.277 210.733C238.728 209.988 237.971 210.118 237.576 211.131C236.732 211.557 236.724 212.263 237.241 212.943C237.571 213.375 237.616 213.96 237.905 214.423C237.876 214.461 237.845 214.498 237.815 214.536C237.271 215.235 236.797 215.986 236.4 216.778C236.497 215.891 236.381 214.994 236.063 214.16C235.741 213.383 235.138 212.729 234.606 212.057C234.466 211.877 234.275 211.742 234.057 211.67C233.84 211.598 233.607 211.592 233.386 211.653C233.166 211.714 232.968 211.839 232.819 212.012C232.669 212.185 232.574 212.398 232.546 212.625L232.543 212.655C232.622 212.699 232.699 212.747 232.774 212.797C232.869 212.86 232.943 212.951 232.986 213.057C233.028 213.163 233.038 213.279 233.013 213.391C232.988 213.503 232.93 213.604 232.847 213.682C232.764 213.76 232.659 213.811 232.546 213.829L232.534 213.831C232.562 214.115 232.612 214.397 232.683 214.674C232.001 217.312 233.473 218.272 235.576 218.315C235.622 218.339 235.667 218.363 235.714 218.386C235.314 219.517 235.064 220.695 234.969 221.891C234.915 222.596 234.918 223.305 234.978 224.01L234.975 223.985C234.822 223.201 234.404 222.494 233.791 221.983C232.88 221.234 231.592 220.959 230.609 220.357C230.505 220.29 230.384 220.254 230.259 220.254C230.135 220.253 230.014 220.289 229.909 220.355C229.804 220.422 229.72 220.517 229.668 220.629C229.616 220.742 229.596 220.867 229.613 220.99L229.617 221.016C229.763 221.076 229.906 221.145 230.044 221.222C230.123 221.267 230.2 221.314 230.276 221.364C230.371 221.428 230.444 221.518 230.487 221.624C230.529 221.73 230.539 221.847 230.514 221.958C230.49 222.07 230.432 222.171 230.348 222.249C230.265 222.328 230.16 222.379 230.047 222.396L230.035 222.398L230.012 222.401C230.262 222.999 230.613 223.549 231.05 224.028C231.477 226.33 233.308 226.549 235.267 225.878H235.269C235.484 226.812 235.795 227.722 236.198 228.591H239.518C239.53 228.554 239.54 228.516 239.551 228.479C239.244 228.499 238.935 228.48 238.633 228.425C238.879 228.123 239.125 227.818 239.371 227.516C239.377 227.51 239.382 227.504 239.387 227.498C239.512 227.343 239.638 227.19 239.763 227.035C239.77 226.561 239.715 226.087 239.601 225.627Z" fill="#F2F2F2"/>
<path d="M289.775 47.2442C290.446 45.8919 291.52 44.7692 292.177 43.4095C292.833 42.0499 292.961 40.2301 291.867 39.1894C290.938 38.3057 289.483 38.2934 288.372 37.6533C285.542 36.0227 285.545 30.8433 282.31 30.3958C280.737 30.1782 279.313 31.3581 278.362 32.6302C277.411 33.9024 276.654 35.3868 275.335 36.2719C273.842 37.2738 271.912 37.3174 270.254 38.0133C267.075 39.3476 265.409 42.7785 264.016 45.9316C263.118 47.9628 262.2 50.1537 262.616 52.335C261.711 52.8982 262.115 54.4132 263.018 54.9791C263.922 55.545 265.057 55.5324 266.094 55.7775C268.275 56.2927 270.061 58.0287 270.907 60.1034C271.567 61.7205 271.702 63.496 271.829 65.2378C272.05 68.2603 272.271 71.2827 272.492 74.3052C272.59 75.6499 272.719 77.0789 273.538 78.1503C274.356 79.2217 276.128 79.6707 277.049 78.6852C277.928 77.7433 277.532 76.2522 277.514 74.9638C277.496 73.6754 278.661 72.0711 279.759 72.7451L280.146 71.8664C282.655 70.9682 284.851 69.3663 286.473 67.2523C288.094 65.1382 289.072 62.6017 289.29 59.9463C289.57 55.6691 287.868 51.0831 289.775 47.2442Z" fill="#E6E6E6"/>
<path d="M292.338 74.3662C292.58 74.1378 292.752 73.845 292.834 73.5221C292.915 73.1992 292.902 72.8599 292.797 72.544C292.692 72.2281 292.498 71.949 292.239 71.7394C291.981 71.5299 291.667 71.3987 291.337 71.3613L291.341 71.5065C290.869 71.7822 290.33 71.9237 289.784 71.9157C289.239 71.9071 288.697 71.993 288.181 72.1695C287.925 72.2627 287.703 72.4313 287.545 72.653C287.386 72.8748 287.298 73.1394 287.293 73.412C287.323 73.621 287.403 73.8196 287.526 73.991C287.649 74.1625 287.812 74.3017 288 74.3968C288.378 74.5832 288.785 74.7065 289.203 74.762C290.28 74.9647 291.541 75.118 292.338 74.3662Z" fill="#E6E6E6"/>
<path d="M313.344 47.3159C313.795 47.009 314.178 46.6124 314.469 46.1508C314.61 45.9172 314.677 45.6465 314.662 45.3741C314.646 45.1018 314.548 44.8405 314.382 44.6246C314.042 44.3299 313.605 44.172 313.155 44.1816C311.934 44.0905 310.707 44.2352 309.541 44.6078C310.739 45.6687 311.936 46.7295 313.134 47.7904L313.344 47.3159Z" fill="#E6E6E6"/>
<path d="M307.356 50.075C307.84 50.6092 307.685 51.4378 307.548 52.1455C307.411 52.8532 307.394 53.7376 308.003 54.1237C308.53 54.4583 309.271 54.1853 309.657 53.6939C310.002 53.1698 310.212 52.5687 310.269 51.9438C310.458 51.0357 310.544 50.1089 310.524 49.1814C310.501 48.247 310.171 47.346 309.586 46.6175C309.17 46.1437 308.617 45.8118 308.003 45.6684C307.389 45.525 306.746 45.5773 306.164 45.8179L306.72 45.7905C306.315 46.3098 306.009 46.8982 305.815 47.5272C305.722 47.8432 305.715 48.1783 305.796 48.4977C305.876 48.8171 306.041 49.1091 306.272 49.3434C306.602 49.6306 307.062 49.7507 307.356 50.075Z" fill="#E6E6E6"/>
<path d="M334.652 41.1154L334.751 40.8108C334.337 41.0501 334.018 41.4243 333.848 41.8706C333.677 42.317 333.665 42.8084 333.813 43.2627C334.131 43.0118 334.377 42.6805 334.524 42.3031C334.672 41.9256 334.716 41.5156 334.652 41.1154Z" fill="#E6E6E6"/>
<path d="M329.275 45.4755C329.802 45.1772 330.251 44.7597 330.588 44.2564C330.924 43.753 331.138 43.1779 331.212 42.5771C331.269 42.2035 331.225 41.8215 331.086 41.4702C331.015 41.2957 330.901 41.1417 330.756 41.0216C330.611 40.9016 330.438 40.8194 330.253 40.7822L330.028 41.1368C329.705 40.8588 329.162 41.1447 329.026 41.5488C328.938 41.9683 328.975 42.4043 329.131 42.8034C329.287 43.205 329.28 43.6515 329.111 44.0479C328.93 44.2811 328.725 44.4956 328.501 44.6885C328.392 44.7881 328.321 44.9225 328.299 45.069C328.278 45.2154 328.308 45.3646 328.385 45.4912C328.597 45.7334 328.994 45.6317 329.275 45.4755Z" fill="#E6E6E6"/>
<path d="M326.982 43.4945C327.175 43.1475 327.266 42.7531 327.245 42.3567L326.752 42.2021C326.437 42.3298 326.158 42.5318 325.938 42.791C325.871 42.8579 325.82 42.9388 325.788 43.0278C325.757 43.1168 325.745 43.2118 325.754 43.3058C325.763 43.3999 325.793 43.4908 325.841 43.572C325.89 43.6533 325.956 43.7228 326.034 43.7756C326.112 43.8284 326.201 43.8632 326.295 43.8776C326.388 43.8919 326.484 43.8855 326.574 43.8586C326.665 43.8317 326.749 43.7852 326.819 43.7222C326.89 43.6593 326.945 43.5816 326.982 43.4945Z" fill="#E6E6E6"/>
<path d="M351.064 41.0012C351.109 41.0385 351.153 41.0769 351.198 41.1145C351.237 41.1063 351.274 41.0915 351.314 41.0866L351.064 41.0012Z" fill="#E6E6E6"/>
<path d="M350.275 45.3251C350.727 44.9592 351.179 44.5933 351.632 44.2274C351.872 44.0573 352.077 43.842 352.235 43.5935C352.343 43.3583 352.389 43.0995 352.37 42.8414C352.351 42.5833 352.267 42.3342 352.125 42.1174C351.875 41.7331 351.561 41.394 351.198 41.1145C350.798 41.2091 350.447 41.4468 350.211 41.7828C349.975 42.1188 349.871 42.5296 349.917 42.9375C349.999 43.4563 350.325 44.0111 350.059 44.464C349.955 44.6404 349.777 44.7605 349.658 44.9265C349.539 45.0926 349.5 45.357 349.664 45.4791C349.846 45.6147 350.098 45.468 350.275 45.3251Z" fill="#E6E6E6"/>
<path d="M351.264 47.5652C351.432 47.5742 351.6 47.5469 351.757 47.4852C351.914 47.4235 352.055 47.3288 352.172 47.2076C352.777 46.7121 353.306 46.1309 353.742 45.4824C352.725 45.8048 351.707 46.1272 350.689 46.4496L351.006 46.8207C350.724 47.0046 350.933 47.5018 351.264 47.5652Z" fill="#E6E6E6"/>
<path d="M354.116 49.6602C354.178 49.8189 354.291 49.9529 354.436 50.0418C354.582 50.1306 354.752 50.1693 354.922 50.152C355.091 50.1295 355.253 50.0703 355.396 49.9784C355.54 49.8866 355.661 49.7644 355.752 49.6204C355.907 49.3923 355.998 49.127 356.016 48.8519C356.034 48.5768 355.978 48.302 355.854 48.0558C355.73 47.8096 355.542 47.601 355.31 47.4516C355.079 47.3023 354.811 47.2175 354.536 47.2061L354.817 47.6354C354.889 48.3682 353.892 48.9588 354.116 49.6602Z" fill="#E6E6E6"/>
<path d="M373.884 57.6865C374.159 57.8919 374.494 58.0025 374.837 58.0017C375.18 58.0009 375.514 57.8887 375.789 57.6819C375.966 57.53 376.111 57.343 376.213 57.1327C376.316 56.9223 376.373 56.6931 376.383 56.4594C376.392 56.2257 376.353 55.9925 376.269 55.7745C376.184 55.5565 376.055 55.3584 375.89 55.1925L375.37 55.4827C375.082 55.2974 374.733 55.2312 374.397 55.298C374.061 55.3648 373.764 55.5593 373.568 55.8407C373.393 56.1357 373.328 56.4835 373.386 56.8218C373.444 57.1601 373.62 57.4667 373.884 57.6865Z" fill="#E6E6E6"/>
<path d="M379.929 58.3707C380.182 58.2972 380.412 58.16 380.597 57.9721C380.782 57.7842 380.915 57.552 380.985 57.2977L379.974 57.1649C379.693 56.9526 379.366 56.8097 379.019 56.7477C378.845 56.7217 378.668 56.7562 378.516 56.8454C378.365 56.9347 378.249 57.0733 378.187 57.238C378.166 57.3782 378.18 57.5215 378.23 57.6543C378.28 57.7871 378.362 57.905 378.47 57.9968C378.661 58.1787 378.895 58.3087 379.151 58.3741C379.406 58.4396 379.674 58.4384 379.929 58.3707Z" fill="#E6E6E6"/>
<path d="M375.755 60.3912C375.773 60.5556 375.837 60.7116 375.94 60.8408C376.043 60.9701 376.181 61.0673 376.338 61.1211C376.508 61.2022 376.7 61.23 376.886 61.2011C377.073 61.1722 377.247 61.0878 377.385 60.9588C377.446 60.89 377.49 60.8075 377.513 60.7183C377.536 60.6292 377.537 60.5359 377.516 60.4462C377.496 60.3565 377.454 60.2729 377.395 60.2026C377.336 60.1322 377.26 60.077 377.175 60.0415L376.418 59.9036C376.125 59.752 375.75 60.0615 375.755 60.3912Z" fill="#E6E6E6"/>
<path d="M331.781 65.7201L331.195 65.1844C331.351 65.4019 331.55 65.5844 331.781 65.7201Z" fill="#E6E6E6"/>
<path d="M327.301 62.5661C327.662 64.2432 329.468 65.6094 331.108 65.1055L331.195 65.1845C330.673 64.4699 330.584 63.4127 330.706 62.4933C330.932 60.9178 331.552 59.4246 332.507 58.1516C333.463 56.8786 334.723 55.8667 336.173 55.2093C336.57 55.0854 336.925 54.854 337.199 54.5409C337.432 54.1992 337.345 53.6131 336.943 53.5166C336.724 53.4916 336.503 53.5427 336.317 53.6613L333.27 55.1611C331.731 55.9186 330.161 56.6978 328.952 57.9149C327.743 59.132 326.94 60.8891 327.301 62.5661Z" fill="#E6E6E6"/>
<path d="M278.11 120.233C275.271 118.2 272.161 116.575 268.871 115.405C266.849 114.686 264.676 114.138 262.569 114.546C261.414 114.785 260.331 115.293 259.409 116.029C258.487 116.765 257.752 117.708 257.263 118.782C256.792 119.863 256.57 121.037 256.614 122.216C256.659 123.395 256.968 124.548 257.52 125.591C258.491 127.412 260.173 128.862 260.736 130.847C261.115 132.186 260.936 133.611 260.753 134.99C260.38 137.809 260.007 140.627 259.634 143.446C259.294 146.012 258.964 148.682 259.776 151.14C260.588 153.597 262.907 155.764 265.482 155.503L265.992 155.464C264.289 154.306 263.811 151.908 264.319 149.911C264.826 147.915 266.113 146.221 267.37 144.589C271.1 139.746 274.83 134.902 278.56 130.059C280.07 128.099 281.666 125.677 280.861 123.338C280.404 122.008 279.253 121.052 278.11 120.233Z" fill="#E6E6E6"/>
<path d="M252.69 107.989C252.312 107.861 251.913 108.145 251.691 108.476C251.511 108.832 251.301 109.171 251.061 109.49C250.48 110.089 249.421 109.97 248.794 109.419C248.167 108.868 247.896 108.015 247.774 107.19C247.628 106.199 247.691 105.094 248.345 104.336C249.018 103.555 250.124 103.345 251.142 103.183C252.194 103.016 253.372 102.876 254.233 103.502C254.776 103.896 255.092 104.532 255.595 104.976C256.097 105.42 256.991 105.588 257.369 105.034C257.468 104.838 257.519 104.621 257.515 104.401C257.512 104.181 257.456 103.966 257.351 103.772C257.139 103.387 257.011 102.961 256.976 102.522C257.001 101.913 257.49 101.43 257.99 101.082C258.491 100.734 259.055 100.434 259.383 99.9202C259.787 99.2888 259.744 98.4754 259.995 97.769C260.601 96.0594 262.763 95.2989 263.393 93.598C263.545 93.2402 263.562 92.8396 263.441 92.4702C263.178 91.7927 262.465 91.9257 262.421 91.0976C262.379 90.3054 263.04 89.5287 263.711 89.1979C264.637 88.7418 265.716 88.7788 266.748 88.751C267.779 88.7233 268.891 88.5862 269.648 87.8849C269.893 87.6324 270.082 87.3309 270.202 87.0003C270.322 86.6697 270.372 86.3174 270.347 85.9664C270.322 85.6154 270.223 85.2736 270.056 84.9635C269.89 84.6534 269.66 84.3819 269.382 84.1667C268.818 83.7772 268.105 83.6417 267.556 83.2309C266.872 82.7193 266.548 81.8673 266.016 81.1998C265.573 80.6915 265.066 80.2427 264.508 79.8646C264.051 79.5256 263.594 79.1866 263.137 78.8476C262.311 78.2347 261.452 77.6063 260.447 77.3879C259.442 77.1695 258.245 77.4785 257.742 78.3754C257.543 78.7752 257.435 79.2136 257.424 79.6598C257.378 80.7103 257.422 81.7629 257.555 82.806C257.638 83.6456 257.721 84.4852 257.804 85.3248C257.878 86.0775 257.798 87.0699 257.068 87.2652C255.447 87.6986 255.994 85.3019 255.634 84.5676C255.084 83.4437 252.556 82.904 251.475 82.4356C250.8 82.1431 250.087 81.8202 249.68 81.2077C249.173 80.4455 249.277 79.408 249.675 78.5833C250.072 77.7586 250.721 77.0874 251.309 76.3862C251.91 75.6715 252.456 74.9136 253.002 74.1566C253.635 73.2785 254.268 72.4005 254.902 71.5225C255.714 70.3964 256.567 69.0221 256.106 67.7126C256.006 67.5374 255.857 67.3956 255.676 67.305C255.496 67.2143 255.293 67.1789 255.093 67.203C254.893 67.2271 254.704 67.3098 254.551 67.4407C254.397 67.5716 254.286 67.7448 254.23 67.9388C254.028 68.6457 254.567 69.5483 254.052 70.0722C253.875 70.2146 253.654 70.2902 253.427 70.286C253.2 70.2818 252.982 70.1979 252.81 70.049C252.476 69.7404 252.222 69.3555 252.069 68.9272C251.443 67.5381 250.834 66.1404 250.193 64.7588C249.99 64.3221 249.778 63.5743 249.164 63.6479C248.63 63.7118 248.342 64.4895 248.36 64.941C248.387 65.5979 248.75 66.1848 249.028 66.7808C249.305 67.3769 249.499 68.0926 249.195 68.6752C248.809 69.4128 247.832 69.5785 247 69.5541C245.431 69.5066 243.895 69.1012 242.507 68.3687C242.471 69.1395 242.434 69.9104 242.398 70.6813C241.294 70.219 240.189 69.7567 239.085 69.2945C238.87 69.2047 238.656 69.1149 238.441 69.0251C237.51 68.6351 236.577 68.2447 235.618 67.9282C235.073 67.7485 234.521 67.5929 233.969 67.4373C233.634 67.3427 233.298 67.2482 232.963 67.1536C232.301 66.9191 231.599 66.8189 230.898 66.859C230.161 66.9516 229.504 67.3472 228.823 67.643C227.303 68.3028 225.337 67.639 223.708 67.6272C223.062 66.684 222.19 65.9178 221.171 65.3987C220.152 64.8796 219.02 64.6243 217.877 64.6559C216.734 64.6876 215.617 65.0053 214.629 65.58C213.641 66.1547 212.812 66.968 212.219 67.9456C211.933 68.4409 211.678 68.9536 211.456 69.4809C211.235 69.9762 211.014 70.4714 210.793 70.9667C210.468 71.6933 210.137 72.4587 210.201 73.2518C210.264 74.0448 210.872 74.855 211.668 74.8478C209.792 75.6971 209.402 78.6691 210.995 79.9741C211.436 80.3355 211.977 80.5718 212.374 80.9812C212.674 81.2906 212.874 81.6826 212.95 82.1069C213.026 82.5312 212.973 82.9685 212.798 83.3625C212.624 83.7566 212.335 84.0894 211.97 84.3184C211.605 84.5475 211.18 84.6621 210.749 84.6478C211.86 85.0773 213.085 85.1172 214.222 84.7611C215.359 84.4049 216.342 83.6737 217.009 82.6869C217.69 81.6205 217.986 80.2883 218.913 79.4266C220.14 78.2853 222.167 78.3739 223.582 79.2712C224.997 80.1686 225.892 81.6965 226.508 83.2549C227.315 85.2972 227.832 87.631 229.551 88.9971C230.382 89.6576 231.435 90.0291 232.17 90.7956C233.216 91.8872 233.397 93.5346 233.374 95.0466C233.35 96.5585 233.187 98.1271 233.738 99.5354C234.289 100.944 235.868 102.102 237.284 101.571C236.878 102.774 236.89 104.079 237.319 105.275C237.747 106.47 238.567 107.486 239.644 108.158C239.387 106.558 239.129 104.958 238.871 103.358C240.156 103.72 240.99 104.967 241.471 106.213C241.952 107.459 242.206 108.806 242.904 109.945C244.002 111.739 245.991 112.512 248.015 112.505C250.201 112.497 251.031 111.455 252.471 109.92C252.761 109.659 252.98 109.329 253.11 108.961C253.169 108.775 253.159 108.575 253.082 108.396C253.004 108.218 252.865 108.073 252.69 107.989Z" fill="#E6E6E6"/>
<path d="M258.88 107.909C257.658 107.717 256.436 107.525 255.214 107.333C255.855 107.718 256.495 108.103 257.136 108.488C257.67 108.844 258.25 109.123 258.861 109.319C259.168 109.416 259.491 109.448 259.81 109.415C260.129 109.381 260.438 109.282 260.718 109.124L260.561 108.825C260.315 108.202 259.541 108.013 258.88 107.909Z" fill="#E6E6E6"/>
<path d="M258.049 114.7L258.058 114.679C257.984 114.557 257.875 114.459 257.745 114.399C257.615 114.339 257.47 114.319 257.329 114.342C257.048 114.392 256.76 114.397 256.477 114.355C256.297 114.285 256.137 114.173 256.01 114.028C255.882 113.883 255.791 113.71 255.744 113.523C255.623 113.157 255.587 112.766 255.449 112.407C255.349 112.123 255.172 111.872 254.939 111.681C254.705 111.491 254.424 111.368 254.125 111.328C253.826 111.304 253.529 111.398 253.299 111.592C253.069 111.785 252.924 112.061 252.896 112.36C252.919 112.668 253.017 112.966 253.181 113.228C253.313 113.481 253.444 113.735 253.576 113.988C253.687 114.215 253.815 114.434 253.958 114.642C254.192 114.964 254.497 115.226 254.849 115.409C255.202 115.592 255.592 115.69 255.989 115.696C256.386 115.701 256.779 115.614 257.137 115.442C257.494 115.269 257.807 115.015 258.049 114.7Z" fill="#E6E6E6"/>
<path d="M250.914 49.6811C251.844 50.2295 253.009 50.6076 253.451 51.5929L253.706 51.6753C253.428 52.021 253.15 52.3666 252.871 52.7123C252.528 53.1394 252.166 53.6154 252.174 54.1636C252.185 54.9186 252.912 55.4882 253.645 55.6663C254.429 55.8274 255.244 55.6918 255.932 55.2858C256.621 54.8799 257.135 54.2325 257.373 53.4693C257.46 53.151 257.496 52.8209 257.573 52.4998C257.796 51.7385 258.132 51.0151 258.571 50.3542C261.042 46.1979 263.512 42.0417 265.983 37.8854C266.291 37.3678 266.608 36.7486 266.376 36.1927C266.253 35.9576 266.062 35.7648 265.828 35.6392C265.594 35.5136 265.327 35.461 265.063 35.4881C264.536 35.5521 264.027 35.7232 263.569 35.9908C263.365 35.6327 263.077 35.3295 262.73 35.1072C262.383 34.8848 261.988 34.7499 261.577 34.7142C260.757 34.6508 259.931 34.7227 259.134 34.927C257.332 35.1988 255.595 35.7956 254.007 36.6883C253.138 37.1275 252.182 37.67 251.93 38.6104C251.62 39.7671 252.619 40.946 253.769 41.2785C254.92 41.6109 256.148 41.3318 257.312 41.0519C257.444 41.6164 257.389 42.2084 257.156 42.739C256.923 43.2697 256.524 43.7106 256.019 43.9955C255.515 44.2804 254.931 44.3941 254.356 44.3195C253.781 44.2448 253.246 43.9859 252.831 43.5816C251.996 42.7688 251.588 41.3579 250.442 41.1481C249.299 40.939 248.391 42.1575 248.139 43.2911C247.892 44.5121 248.026 45.7794 248.522 46.922C249.018 48.0646 249.853 49.0276 250.914 49.6811Z" fill="#E6E6E6"/>
<path d="M265.242 69.6803C264.692 68.1297 263.969 66.6459 263.086 65.2572C262.418 64.1591 261.592 63.1645 260.636 62.3048C259.763 61.5503 258.759 60.9621 257.673 60.569C256.62 60.188 255.447 59.9998 254.382 60.3472C253.317 60.6945 252.411 61.6848 252.433 62.8048C252.456 64.0432 253.54 65.0117 254.669 65.5206C255.798 66.0295 257.055 66.2509 258.12 66.8826C258.845 67.322 259.45 67.9325 259.883 68.6606C260.316 69.3887 260.564 70.2121 260.604 71.0584L260.873 71.5021C260.265 71.7035 259.698 72.0122 259.199 72.4135C258.952 72.6174 258.763 72.883 258.651 73.1834C258.539 73.4838 258.509 73.8083 258.563 74.1242C258.749 74.8741 259.515 75.3045 260.207 75.6474C261.487 76.281 262.766 76.9147 264.045 77.5483C263.394 75.6059 265.527 73.7984 265.645 71.753C265.649 71.0422 265.512 70.3376 265.242 69.6803Z" fill="#E6E6E6"/>
<path d="M233.072 64.4358C233.849 65.0385 235.042 64.7566 235.753 64.0783C236.464 63.4 236.81 62.4348 237.133 61.5067C237.015 62.4253 237.026 63.3559 237.166 64.2714C237.239 64.7292 237.406 65.1668 237.657 65.5567C237.908 65.9465 238.237 66.2801 238.623 66.5362C238.974 66.7286 239.352 66.8663 239.745 66.9445C241.569 67.3596 243.475 67.2234 245.222 66.5531L245.238 65.9558C244.36 66.0559 243.696 65.0935 243.638 64.2122C243.58 63.331 243.9 62.4667 243.928 61.584C243.957 60.7012 243.531 59.6699 242.662 59.5128C242.814 59.8183 242.87 60.1629 242.821 60.5007C242.772 60.8385 242.622 61.1535 242.39 61.4038C242.158 61.6541 241.855 61.8278 241.522 61.9018C241.189 61.9758 240.841 61.9466 240.525 61.8181C239.519 61.4091 239.154 60.1836 238.376 59.4253C237.896 58.998 237.3 58.7223 236.663 58.6327C236.027 58.5432 235.378 58.6439 234.798 58.9221C234.226 59.214 233.724 59.6268 233.327 60.1318C232.93 60.6367 232.647 61.2219 232.498 61.8468C232.262 62.7536 232.332 63.8611 233.072 64.4358Z" fill="#E6E6E6"/>
<path d="M257.025 58.146L257.061 58.0875C256.844 57.4619 256.172 57.095 255.517 57.0019C254.856 56.9583 254.193 56.9803 253.536 57.0674C252.874 57.1531 252.202 57.0052 251.637 56.649C251.185 56.3117 250.928 55.781 250.568 55.3483C250.207 54.9155 249.623 54.5596 249.099 54.7666C248.532 54.9906 248.381 55.7858 248.656 56.33C248.98 56.8524 249.469 57.2517 250.046 57.4648C252.23 58.4674 254.688 58.7073 257.025 58.146Z" fill="#E6E6E6"/>
<path d="M249.569 60.0214C249.388 60.1543 249.265 60.3522 249.226 60.5738C249.187 60.7953 249.235 61.0233 249.361 61.21C249.486 61.3967 249.679 61.5277 249.899 61.5755C250.119 61.6234 250.348 61.5844 250.54 61.4667L250.731 61.6557C250.986 61.1998 251.091 60.5892 250.765 60.181C250.621 60.0118 250.419 59.9019 250.198 59.8724C249.977 59.843 249.753 59.896 249.569 60.0214Z" fill="#E6E6E6"/>
<path d="M247.33 61.6567C247.332 61.4938 247.286 61.3339 247.196 61.1981C247.106 61.0622 246.977 60.9567 246.826 60.8954C246.724 60.8778 246.618 60.8811 246.517 60.9053C246.416 60.9294 246.32 60.9738 246.236 61.0358C246.153 61.0978 246.082 61.1761 246.029 61.2661C245.977 61.356 245.943 61.4556 245.93 61.559C245.914 61.7697 245.941 61.9813 246.011 62.1808C246.08 62.3803 246.19 62.5634 246.333 62.7187C246.417 62.8438 246.525 62.9499 246.653 63.0298C246.78 63.1098 246.923 63.1619 247.072 63.1826C247.372 63.1924 247.677 62.8788 247.556 62.6044L247.098 62.5955C247.239 62.3019 247.318 61.9822 247.33 61.6567Z" fill="#E6E6E6"/>
<path d="M238.373 56.9662C238.541 57.1025 238.709 57.2388 238.877 57.3751C239.169 57.627 239.484 57.8505 239.817 58.0425C240.401 58.366 241.088 58.45 241.733 58.2769C242.051 58.1862 242.341 58.0168 242.577 57.7843C242.812 57.5518 242.986 57.2638 243.081 56.9467C243.282 56.1889 242.954 55.402 242.633 54.6867C242.559 54.4821 242.438 54.2977 242.28 54.149C242.199 54.077 242.095 54.0354 241.987 54.0311C241.878 54.0269 241.772 54.0602 241.685 54.1256C241.622 54.2038 241.58 54.2968 241.564 54.3957C241.547 54.4947 241.556 54.5962 241.589 54.6908C241.658 54.8792 241.69 55.0793 241.682 55.2799C241.65 55.4777 241.443 55.6646 241.26 55.5828L241.231 56.2561C240.357 55.814 239.895 54.6381 238.923 54.5222C238.705 54.4961 238.484 54.5305 238.284 54.6215C238.084 54.7126 237.913 54.8568 237.79 55.0384C237.666 55.22 237.595 55.4321 237.583 55.6515C237.572 55.8709 237.621 56.0892 237.726 56.2825C237.894 56.5508 238.114 56.7831 238.373 56.9662Z" fill="#E6E6E6"/>
<path d="M236.293 54.0595C236.495 53.921 236.655 53.7293 236.755 53.5058C236.855 53.2822 236.891 53.0353 236.86 52.7924C236.836 52.6747 236.786 52.5638 236.714 52.4676C236.642 52.3713 236.55 52.2921 236.444 52.2356C236.338 52.179 236.221 52.1465 236.101 52.1404C235.981 52.1342 235.861 52.1546 235.75 52.2C235.5 52.3865 235.325 52.6555 235.255 52.9591C235.025 53.6084 234.795 54.2577 234.564 54.9069L234.951 54.6254C235.43 54.5224 235.885 54.3304 236.293 54.0595Z" fill="#E6E6E6"/>
<path d="M240.776 50.0749C240.845 49.9878 240.894 49.8865 240.92 49.7783C240.946 49.6701 240.947 49.5576 240.925 49.4486C240.903 49.3397 240.857 49.237 240.79 49.1477C240.724 49.0585 240.639 48.9849 240.541 48.9321L240.057 48.8868C239.947 48.9147 239.845 48.9679 239.759 49.0423C239.674 49.1166 239.607 49.21 239.564 49.315C239.521 49.42 239.503 49.5336 239.511 49.6467C239.52 49.7598 239.555 49.8693 239.614 49.9663C239.673 50.0634 239.754 50.1453 239.85 50.2056C239.946 50.2659 240.055 50.3028 240.168 50.3133C240.281 50.3239 240.394 50.3078 240.5 50.2664C240.606 50.225 240.7 50.1594 240.776 50.0749Z" fill="#E6E6E6"/>
<path d="M245.226 50.8217C245.677 51.0376 246.249 51.2434 246.641 50.9333C246.758 50.828 246.844 50.694 246.892 50.5446C246.94 50.3953 246.948 50.2359 246.915 50.0826C246.844 49.7767 246.708 49.4898 246.516 49.2419C245.915 48.3797 245.152 47.643 244.27 47.073L244.051 47.3565C243.746 48.1481 243.452 49.0721 243.877 49.8061C244.164 50.3009 244.71 50.5749 245.226 50.8217Z" fill="#E6E6E6"/>
<path d="M248.589 51.5261L249.433 51.9079C249.35 51.7636 249.224 51.6491 249.072 51.5806C248.921 51.5121 248.752 51.493 248.589 51.5261Z" fill="#E6E6E6"/>
<path d="M246.314 54.1818L245.915 54.3132C245.576 54.8705 245.723 55.5832 245.881 56.2162C245.98 56.6164 246.196 57.1089 246.608 57.0907C247.009 57.073 247.186 56.5868 247.263 56.1929C247.383 55.765 247.396 55.3142 247.301 54.8801C247.246 54.6652 247.117 54.4767 246.936 54.3487C246.755 54.2207 246.535 54.1615 246.314 54.1818Z" fill="#E6E6E6"/>
<path d="M239.954 52.3061L240.249 52.4249C240.318 52.415 240.382 52.3826 240.431 52.3327C240.48 52.2827 240.511 52.218 240.519 52.1487C240.528 52.0793 240.513 52.0091 240.477 51.9489C240.442 51.8887 240.387 51.8419 240.322 51.8158C240.258 51.7897 240.186 51.7857 240.119 51.8045C240.051 51.8232 239.992 51.8636 239.95 51.9195C239.908 51.9753 239.886 52.0435 239.886 52.1134C239.887 52.1833 239.911 52.251 239.954 52.3061Z" fill="#E6E6E6"/>
<path d="M254.832 74.8722C254.689 74.8754 254.549 74.9127 254.423 74.9811C254.297 75.0494 254.19 75.1468 254.11 75.2651C254.029 75.3834 253.979 75.5192 253.961 75.6612C253.944 75.8031 253.961 75.9471 254.011 76.0812C254.301 76.7053 255.299 76.708 255.742 76.1819C255.856 76.0325 255.937 75.8611 255.982 75.6786C256.026 75.4961 256.031 75.3065 255.998 75.1217C255.965 74.9369 255.895 74.7609 255.79 74.6049C255.686 74.4488 255.55 74.3161 255.392 74.2151L254.832 74.8722Z" fill="#E6E6E6"/>
<path d="M269.207 89.6551C269.091 89.686 268.983 89.7399 268.888 89.8136C268.793 89.8872 268.714 89.9791 268.655 90.0838C268.596 90.1886 268.559 90.304 268.546 90.4233C268.533 90.5426 268.544 90.6634 268.578 90.7785L269.406 90.8361C269.687 90.6952 269.967 90.5544 270.248 90.4135C270.231 90.2946 270.19 90.1804 270.129 90.0775C270.067 89.9746 269.985 89.8852 269.888 89.8145C269.791 89.7438 269.681 89.6932 269.564 89.6659C269.447 89.6385 269.326 89.6348 269.207 89.6551Z" fill="#E6E6E6"/>
<path d="M265.839 90.6801C265.602 90.8485 265.412 91.0744 265.286 91.3367C265.161 91.5989 265.104 91.8888 265.121 92.1791C265.148 92.4686 265.267 92.742 265.459 92.9598C265.652 93.1776 265.909 93.3284 266.193 93.3904C266.48 93.4353 266.773 93.3697 267.013 93.2068C267.254 93.0438 267.423 92.7957 267.487 92.5126C267.627 91.6556 266.706 91.0279 266.375 90.225L265.839 90.6801Z" fill="#E6E6E6"/>
<path d="M298.022 85.0198C298.109 85.6632 297.529 86.2268 297.508 86.8758C297.482 87.6458 298.32 88.2449 299.087 88.1693C299.468 88.1033 299.828 87.95 300.139 87.7214C300.45 87.4927 300.704 87.195 300.881 86.8516L300.898 86.7794C300.524 86.3573 300.151 85.9352 299.777 85.5131C299.319 84.9947 298.832 84.4047 298.85 83.7128C298.859 83.3717 298.994 83.0412 298.986 82.7001C298.968 82.4548 298.913 82.2135 298.824 81.9844C298.723 81.6826 298.585 81.3425 298.283 81.2407C297.906 81.1132 297.525 81.4477 297.345 81.803C297.183 82.1307 297.104 82.4933 297.116 82.8587C297.127 83.2241 297.228 83.5811 297.411 83.898C297.629 84.2683 297.964 84.594 298.022 85.0198Z" fill="#E6E6E6"/>
<path d="M294.5 87.2835C294.582 87.3276 294.672 87.3535 294.764 87.3595C294.857 87.3654 294.95 87.3512 295.036 87.3179C295.369 87.2612 295.689 87.145 295.981 86.9748C296.125 86.8878 296.244 86.7639 296.326 86.6157C296.407 86.4676 296.447 86.3005 296.442 86.1317C296.392 85.9193 296.28 85.7267 296.12 85.5782C295.96 85.4298 295.76 85.332 295.544 85.2975C295.394 85.2448 295.234 85.2298 295.077 85.2538C294.921 85.2777 294.772 85.3399 294.645 85.4348C294.367 85.6958 294.4 86.1388 294.455 86.5164L294.396 86.6148C294.344 86.8481 294.31 87.138 294.5 87.2835Z" fill="#E6E6E6"/>
<path d="M353.282 114.781C353.201 114.58 353.12 114.379 353.039 114.178C352.928 114.451 352.97 114.73 353.282 114.781Z" fill="#E6E6E6"/>
<path d="M401.77 72.5306C400.733 71.4059 400.098 70.7576 399.444 69.3636C399.087 68.5947 398.546 67.9261 397.869 67.4173C397.191 66.9085 396.398 66.5753 395.561 66.4476C393.41 66.0933 391.213 66.6543 389.036 66.5419C385.55 66.3618 382.406 64.492 379.068 63.472C377.198 62.9483 375.295 62.5557 373.371 62.2971C372.262 62.1218 371.154 61.9465 370.045 61.7711C366.411 61.1964 362.754 60.62 359.075 60.6964C358.015 60.7184 356.537 60.3996 356.622 59.3421C356.728 58.0286 359.091 58.2011 359.545 56.9642C359.826 56.1992 359.153 55.3959 358.415 55.0499C357.677 54.704 356.825 54.6 356.155 54.1355C355.486 53.671 355.119 52.5943 355.734 52.0601C354.028 52.9348 352.321 53.8096 350.615 54.6844C349.196 55.4116 347.611 56.3578 347.361 57.9323C346.506 58.1582 345.758 58.6779 345.248 59.4002C344.288 59.4052 343.534 60.3267 343.375 61.2734C343.217 62.2201 343.505 63.1783 343.789 64.095C343.441 63.4281 343.071 62.7358 342.458 62.3006C341.844 61.8655 340.91 61.7826 340.387 62.3232C339.85 62.8779 339.975 63.8086 340.355 64.4807C340.735 65.1528 341.318 65.6952 341.677 66.379C342.796 68.5145 340.768 71.5211 338.368 71.2833C338.529 69.0781 338.69 66.8729 338.851 64.6677C338.953 63.9894 338.896 63.2967 338.685 62.6442C338.423 62.0129 337.753 61.4944 337.086 61.6435C335.887 61.9115 335.989 63.6681 336.488 64.791C336.987 65.914 337.484 67.4756 336.466 68.1633C335.808 68.6074 334.917 68.3331 334.207 67.9786C333.497 67.6241 332.737 67.1873 331.961 67.3529C331.185 67.5185 330.697 68.7048 331.383 69.1042C330.246 68.9066 329.109 68.709 327.972 68.5114C327.916 68.8461 327.79 69.1653 327.602 69.4483C327.415 69.7313 327.17 69.9719 326.884 70.1544C326.598 70.337 326.277 70.4575 325.941 70.5081C325.606 70.5587 325.263 70.5384 324.936 70.4484C324.824 69.9858 324.713 69.5233 324.601 69.0606C324.434 69.0143 324.268 68.968 324.102 68.9217C324.624 69.0671 323.807 71.2697 323.074 72.9523C322.089 72.8368 320.65 72.8146 320.486 72.5324C319.7 71.181 319.793 67.962 318.427 67.2017C317.742 66.8204 317.039 66.473 316.319 66.1594C315.941 65.9794 315.541 65.8482 315.13 65.769C314.29 65.6367 313.445 65.897 312.635 66.1541C311.678 66.4579 310.699 66.7731 309.907 67.3897C309.231 67.9764 308.651 68.666 308.189 69.4331C306.625 71.7478 305.061 74.0625 303.497 76.3773C303.031 76.9954 302.664 77.6825 302.41 78.4137C302.29 78.7773 302.25 79.1625 302.293 79.5429C302.336 79.9233 302.46 80.29 302.658 80.618C302.866 80.9395 303.176 81.1817 303.538 81.3055C303.901 81.4293 304.294 81.4276 304.655 81.3006C305.109 81.1044 305.563 80.6597 306.012 80.8651C306.352 81.0206 306.437 81.4678 306.401 81.8402C306.315 82.2048 306.308 82.5837 306.382 82.9512C306.586 83.5309 307.373 83.7326 307.934 83.4817C308.48 83.1841 308.888 82.6863 309.074 82.0932C309.615 80.7064 309.56 79.172 309.695 77.6897C309.829 76.2073 310.234 74.6218 311.403 73.7001C311.753 73.4242 312.267 73.2254 312.627 73.4877C312.762 73.6103 312.855 73.7719 312.894 73.95C312.932 74.128 312.914 74.3137 312.842 74.481C312.692 74.8122 312.495 75.1206 312.259 75.3972C311.86 75.959 311.58 76.5969 311.438 77.2713C311.296 77.9457 311.294 78.6422 311.433 79.3173L311.672 79.4651C312.583 79.2288 313.803 79.652 315.012 80.0578C314.134 80.319 313.361 80.8509 312.803 81.5775C311.405 83.5396 310.392 85.3964 307.626 85.3731C306.97 85.3675 306.319 85.2378 305.663 85.2364C305 85.1954 304.348 85.4128 303.842 85.8427C303.345 86.3299 303.191 87.0716 302.765 87.6227C302.205 88.3473 301.27 88.642 300.416 88.9711C299.791 89.2117 299.133 89.5361 298.846 90.1405C298.666 90.6363 298.624 91.1718 298.726 91.6894C298.822 92.6048 298.992 93.6459 299.769 94.1401C300.059 94.2916 300.377 94.3838 300.703 94.4115C301.03 94.4391 301.358 94.4015 301.67 94.3009C302.478 94.1044 303.268 93.7344 304.097 93.7897C305.4 93.8764 306.472 95.1267 306.486 96.432C306.492 97.0927 306.299 97.8506 306.737 98.3454C307.149 98.8103 307.965 98.7274 308.391 98.2761C308.59 98.036 308.726 97.751 308.789 97.446C308.851 97.141 308.838 96.8253 308.751 96.5265C308.57 95.9313 308.291 95.3703 307.927 94.8662C308.36 94.7539 308.819 94.7952 309.226 94.9832C309.632 95.1711 309.961 95.494 310.156 95.897C310.446 96.5397 310.352 97.2814 310.444 97.9801C310.537 98.6789 310.962 99.4555 311.666 99.4958C311.896 99.5023 312.121 99.428 312.302 99.2859C312.483 99.1437 312.609 98.9427 312.657 98.7177C312.664 98.363 312.645 98.0084 312.599 97.6566C312.623 97.3104 312.779 96.9865 313.034 96.7513C313.289 96.5161 313.625 96.3875 313.972 96.3918C313.758 96.7874 313.688 97.2451 313.775 97.6865C313.861 98.1278 314.099 98.5253 314.447 98.8106C314.982 99.2251 315.69 99.3177 316.357 99.4335C317.024 99.5493 317.736 99.7324 318.167 100.255C318.884 101.126 318.006 101.518 317.87 102.255C317.702 103.16 318.458 104.496 318.748 105.362C320.083 107.229 321.417 109.096 322.751 110.962C323.049 111.416 323.4 111.833 323.798 112.203C325.115 113.334 327.286 113.222 328.55 112.031C329.162 111.412 329.56 110.612 329.684 109.75C329.809 108.887 329.654 108.008 329.241 107.24C328.461 105.819 326.914 104.939 326.15 103.509C327.421 104.562 328.982 105.203 330.626 105.35C333.535 105.941 336.298 107.1 338.758 108.76C338.874 111.33 339.86 113.785 341.555 115.721C341.859 113.527 342.882 111.496 344.463 109.946C345.491 108.943 346.895 108.135 348.306 108.404C349.716 108.674 350.786 110.472 349.933 111.627C350.648 111.681 351.363 111.734 352.077 111.787C352.398 112.584 352.718 113.381 353.039 114.178C353.096 114.01 353.205 113.866 353.351 113.765C353.496 113.664 353.67 113.612 353.847 113.617C354.516 113.718 354.985 114.341 355.622 114.571C356.822 115.004 358.104 113.804 358.259 112.538C358.415 111.271 357.812 110.049 357.227 108.915C358.52 109.155 359.854 109.012 361.067 108.505C362.28 107.997 363.319 107.147 364.056 106.059C364.793 104.97 365.197 103.69 365.218 102.376C365.239 101.061 364.876 99.7688 364.174 98.6572C365.565 97.1962 367.202 95.991 369.01 95.0966C370.684 94.2699 372.514 93.7025 373.977 92.5428C375.439 91.3831 376.465 89.3693 375.761 87.6405C375.264 86.4192 374.018 85.5903 373.645 84.3256C373.105 82.4949 374.745 80.6013 376.598 80.1439C378.452 79.6865 380.387 80.2487 382.212 80.8065C381.932 78.9281 384.109 77.1673 385.887 77.8343C386.632 77.5327 387.376 77.2312 388.121 76.9296C387.258 78.8329 385.387 80.0439 384.012 81.6174C382.636 83.1908 381.817 85.7531 383.254 87.2708C385.313 85.4041 387.373 83.5374 389.433 81.6707C391.587 79.7181 393.741 77.7655 395.895 75.813C395.793 75.5108 395.69 75.2086 395.587 74.9065C397.625 74.1323 399.82 73.492 401.77 72.5306Z" fill="#E6E6E6"/>
<path d="M294.795 97.6536C294.712 97.7734 294.668 97.916 294.669 98.0619C294.669 98.2077 294.715 98.3498 294.8 98.4688C294.91 98.5628 295.05 98.6152 295.195 98.6172C295.34 98.6191 295.482 98.5704 295.595 98.4795C295.816 98.2907 295.989 98.0516 296.098 97.7822C296.205 97.9892 296.374 98.1582 296.58 98.2663C296.786 98.3744 297.021 98.4163 297.252 98.3864C297.714 98.3168 298.151 98.1345 298.525 97.8556C298.822 97.6817 299.084 97.4543 299.298 97.1851C299.404 97.0494 299.476 96.8909 299.51 96.7222C299.544 96.5535 299.538 96.3792 299.492 96.2133C299.381 95.9589 299.208 95.7361 298.99 95.5649C298.445 95.0615 297.9 94.5581 297.355 94.0547L297.17 93.9994C297.074 93.8971 296.958 93.8153 296.83 93.7589C296.701 93.7025 296.563 93.6727 296.422 93.6712C296.282 93.6697 296.143 93.6966 296.013 93.7502C295.883 93.8039 295.766 93.8832 295.668 93.9834C295.329 94.3622 295.328 94.9281 295.379 95.4335C295.431 95.9388 295.512 96.4772 295.287 96.9326C295.158 97.1937 294.939 97.4004 294.795 97.6536Z" fill="#E6E6E6"/>
<path d="M326.414 114.849C324.296 114.378 322.358 113.31 320.828 111.772C319.297 110.234 318.239 108.29 317.779 106.169C317.578 105.169 317.487 104.076 316.821 103.302C316.177 102.553 315.124 102.283 314.136 102.283C313.148 102.283 312.174 102.51 311.188 102.572C309.464 102.679 307.638 102.224 306.405 101.014C305.821 100.441 305.379 99.7136 304.697 99.2617C303.781 98.6544 302.566 98.6549 301.522 98.999C300.359 99.3823 299.428 100.431 298.157 100.287C296.834 100.137 295.301 99.6692 294.783 101.411C294.634 101.912 294.684 102.462 294.495 102.95C294.204 103.701 293.431 104.125 292.819 104.65C291.586 105.708 290.931 107.315 290.711 108.924C290.49 110.533 290.661 112.167 290.832 113.782C290.924 114.654 291.045 115.591 291.643 116.231C292.478 117.123 293.877 117.088 295.094 116.988C296.508 116.871 297.922 116.754 299.336 116.637C300.098 116.575 300.966 116.548 301.509 117.087C301.834 117.41 301.972 117.877 302.258 118.235C302.514 118.54 302.867 118.748 303.257 118.827C303.648 118.906 304.053 118.85 304.408 118.669C304.121 119.181 303.965 119.756 303.954 120.343C303.942 120.929 304.075 121.51 304.342 122.033C304.608 122.556 304.999 123.006 305.481 123.341C305.962 123.677 306.519 123.889 307.102 123.959L307.211 124.027C306.306 125.577 305.366 127.318 305.742 129.073C306.064 130.578 307.31 131.785 307.514 133.31C307.701 134.71 306.971 136.141 307.294 137.516C307.621 138.908 309.027 139.879 310.453 139.982C311.879 140.086 313.28 139.453 314.385 138.545C315.49 137.637 316.344 136.468 317.186 135.312C317.706 134.598 318.238 133.855 318.417 132.99C318.607 132.07 318.387 131.05 318.834 130.224C319.35 129.272 320.575 128.914 321.193 128.025C321.994 126.872 321.522 125.303 321.699 123.911C322.137 120.467 326.514 118.32 326.414 114.849Z" fill="#E6E6E6"/>
<path d="M325.782 126.609C325.663 127.146 325.159 127.5 324.679 127.771C324.199 128.042 323.671 128.315 323.427 128.809C323.177 129.315 323.291 129.917 323.422 130.466C323.694 131.608 324.015 132.737 324.385 133.853C325.101 132.5 325.726 131.1 326.257 129.664C326.481 129.129 326.62 128.563 326.667 127.985C326.689 127.695 326.65 127.405 326.553 127.131C326.456 126.858 326.302 126.608 326.102 126.398L325.782 126.609Z" fill="#E6E6E6"/>
<path d="M355.234 120.618C354.632 119.924 354.031 119.229 353.43 118.535C353.018 118.06 352.549 117.553 351.926 117.474L351.67 117.638C352.191 118.88 352.713 120.121 353.234 121.363C353.419 121.93 353.743 122.441 354.179 122.848C354.645 123.215 355.402 123.286 355.791 122.838C355.917 122.67 355.996 122.471 356.021 122.263C356.046 122.055 356.015 121.844 355.933 121.651C355.763 121.268 355.526 120.918 355.234 120.618Z" fill="#E6E6E6"/>
<path d="M361.061 121.947C361.288 121.868 361.496 121.743 361.672 121.579C361.848 121.415 361.988 121.216 362.083 120.995C362.269 120.551 362.392 120.084 362.449 119.607C362.551 118.985 362.654 118.364 362.757 117.742L362.623 117.707C362.492 117.645 362.343 117.632 362.203 117.67C362.064 117.709 361.943 117.797 361.863 117.918C361.712 118.165 361.597 118.433 361.523 118.713C361.485 118.852 361.416 118.982 361.321 119.091C361.226 119.201 361.107 119.287 360.974 119.344C360.491 119.49 360.034 118.978 359.53 118.998C359.326 119.024 359.138 119.118 358.994 119.265C358.851 119.412 358.762 119.604 358.741 119.808C358.712 120.22 358.829 120.629 359.071 120.964C359.501 121.631 360.298 122.167 361.061 121.947Z" fill="#E6E6E6"/>
<path d="M364.386 123.126L365.772 119.476C365.21 119.883 364.78 120.445 364.534 121.094C364.288 121.742 364.236 122.449 364.386 123.126Z" fill="#E6E6E6"/>
<path d="M371.458 120.183L371.178 120.195C371.053 120.443 370.986 120.716 370.984 120.994C370.981 121.272 371.042 121.546 371.163 121.796C371.409 122.295 371.767 122.73 372.208 123.067C372.893 123.632 373.675 124.069 374.515 124.355C375.747 124.714 377.022 124.911 378.305 124.939C379.039 124.987 379.772 125.035 380.506 125.083C380.855 125.106 381.308 125.061 381.405 124.725C381.485 124.447 381.248 124.186 381.027 123.999C379.086 122.366 376.733 121.298 374.225 120.912C373.274 120.767 372.265 120.708 371.458 120.183Z" fill="#E6E6E6"/>
<path d="M379.29 129.87C378.762 129.359 378.235 128.847 377.707 128.335C377.194 127.838 376.425 127.31 375.837 127.717C375.499 127.95 375.395 128.406 375.108 128.7C374.934 128.857 374.723 128.967 374.495 129.021C374.267 129.075 374.029 129.072 373.803 129.011C373.352 128.884 372.926 128.682 372.543 128.414L371.234 127.601C370.782 127.321 370.33 127.041 369.878 126.76L368.859 127.751C368.903 127.263 368.253 126.947 367.803 127.139C367.589 127.259 367.405 127.426 367.264 127.627C367.124 127.828 367.03 128.058 366.991 128.3C366.916 128.784 366.785 129.258 366.601 129.712C366.083 130.703 364.826 130.996 363.721 131.162C362.615 131.328 361.362 131.562 360.77 132.511C360.277 133.301 360.425 134.316 360.59 135.232L361.213 138.7C361.242 139.12 361.411 139.519 361.692 139.833C362.24 140.316 363.088 140.022 363.756 139.727C365.152 139.055 366.651 138.621 368.191 138.442C369.744 138.268 371.307 138.668 372.585 139.567C373.378 140.171 373.982 141.006 374.821 141.542C375.4 141.89 376.05 142.101 376.722 142.16C377.395 142.219 378.072 142.123 378.702 141.881C379.964 141.378 381.009 140.446 381.652 139.249C382.224 138.194 382.511 137.007 382.484 135.808C382.458 134.608 382.12 133.435 381.504 132.406C380.874 131.472 380.13 130.62 379.29 129.87Z" fill="#E6E6E6"/>
<path d="M377.734 143.999C377.608 144.153 377.534 144.343 377.523 144.542C377.512 144.741 377.566 144.938 377.675 145.105C377.905 145.434 378.256 145.66 378.651 145.733C379.042 145.803 379.441 145.821 379.837 145.787L379.849 145.491C379.743 144.972 379.504 144.489 379.154 144.091C378.772 143.728 378.097 143.616 377.734 143.999Z" fill="#E6E6E6"/>
<path d="M391.322 144.316L391.132 144.247C390.682 144.925 390.232 145.604 389.782 146.282C389.54 146.647 389.287 147.086 389.435 147.498C389.609 147.987 390.256 148.13 390.758 148.001C391.142 147.897 391.487 147.685 391.755 147.392C392.022 147.098 392.201 146.734 392.269 146.343C392.324 145.95 392.264 145.549 392.096 145.189C391.928 144.829 391.659 144.526 391.322 144.316Z" fill="#E6E6E6"/>
<path d="M394.754 142.162L393.511 141.174C393.494 141.632 393.477 142.091 393.461 142.549L393.414 142.55C393.701 142.801 393.971 143.071 394.224 143.356C394.515 143.603 395.003 143.716 395.252 143.426C395.326 143.323 395.369 143.199 395.373 143.072C395.378 142.944 395.345 142.818 395.279 142.709C395.142 142.493 394.963 142.307 394.754 142.162Z" fill="#E6E6E6"/>
<path d="M372.298 99.1726C371.777 99.1562 371.199 99.1245 370.795 99.4546C370.662 99.5734 370.546 99.7094 370.448 99.8589L370.306 100.058C370.093 100.338 369.907 100.637 369.751 100.951C369.669 101.099 369.62 101.262 369.607 101.43C369.594 101.598 369.617 101.767 369.675 101.925C369.708 102.001 369.758 102.068 369.82 102.123C369.883 102.177 369.956 102.217 370.036 102.24C370.115 102.263 370.199 102.268 370.281 102.255C370.362 102.242 370.44 102.211 370.509 102.165C370.731 101.958 370.679 101.584 370.848 101.331C370.922 101.236 371.017 101.159 371.126 101.107C371.235 101.055 371.355 101.029 371.475 101.031C371.716 101.037 371.956 101.064 372.192 101.112C372.846 101.201 373.512 101.102 374.111 100.825C374.71 100.549 375.217 100.106 375.573 99.5503C375.929 98.9945 376.118 98.3485 376.119 97.6886C376.119 97.0286 375.931 96.3823 375.576 95.826L375.534 95.6979C375.173 95.6841 374.818 95.7974 374.532 96.018C374.246 96.2386 374.046 96.5527 373.967 96.9054C373.851 97.5131 374.098 98.219 373.73 98.7162C373.419 99.1354 372.82 99.1889 372.298 99.1726Z" fill="#E6E6E6"/>
<path d="M376.967 92.73L376.887 92.7231C376.421 92.8084 375.973 92.9752 375.565 93.216C375.431 93.2782 375.324 93.3868 375.263 93.5216C375.246 93.5932 375.246 93.6681 375.264 93.7395C375.283 93.8109 375.318 93.8767 375.369 93.9308C375.47 94.0378 375.588 94.1271 375.719 94.1947C375.914 94.3249 376.13 94.4213 376.357 94.4798C376.471 94.508 376.59 94.5073 376.703 94.478C376.817 94.4486 376.921 94.3915 377.007 94.3117C377.088 94.2008 377.144 94.0736 377.17 93.9391C377.196 93.8045 377.193 93.6657 377.16 93.5326C377.123 93.2593 377.058 92.9904 376.967 92.73Z" fill="#E6E6E6"/>
<path d="M368.928 99.3273C369.053 99.1276 369.141 98.9074 369.19 98.677C369.239 98.4981 369.287 98.3192 369.336 98.1403L368.816 97.8245C368.568 97.9538 368.339 98.117 368.135 98.3096C368.034 98.4066 367.954 98.5235 367.901 98.6529C367.847 98.7823 367.821 98.9215 367.823 99.0616C367.83 99.2016 367.885 99.335 367.977 99.4402C368.07 99.5454 368.196 99.6161 368.334 99.6409C368.451 99.6445 368.568 99.6174 368.672 99.5625C368.776 99.5075 368.865 99.4265 368.928 99.3273Z" fill="#E6E6E6"/>
<path d="M312.291 50.981C312.086 51.1091 312.144 51.4189 312.227 51.6464C312.323 51.9075 312.419 52.1686 312.514 52.4298L312.648 51.9229C312.766 51.7263 312.818 51.4973 312.797 51.2691C312.75 51.0463 312.484 50.8606 312.291 50.981Z" fill="#E6E6E6"/>
<path d="M442.095 98.0199H355.139C353.043 98.0175 351.034 97.1839 349.552 95.7019C348.07 94.2199 347.236 92.2106 347.234 90.1148V27.9051C347.236 25.8093 348.07 23.8 349.552 22.318C351.034 20.836 353.043 20.0024 355.139 20H442.095C444.191 20.0024 446.2 20.836 447.682 22.318C449.164 23.8 449.998 25.8093 450 27.9051V90.1148C449.998 92.2106 449.164 94.2199 447.682 95.7019C446.2 97.1839 444.191 98.0175 442.095 98.0199Z" fill="white"/>
<path d="M442.095 98.0199H355.139C353.043 98.0175 351.034 97.1839 349.552 95.7019C348.07 94.2199 347.236 92.2106 347.234 90.1148V27.9051C347.236 25.8093 348.07 23.8 349.552 22.318C351.034 20.836 353.043 20.0024 355.139 20H442.095C444.191 20.0024 446.2 20.836 447.682 22.318C449.164 23.8 449.998 25.8093 450 27.9051V90.1148C449.998 92.2106 449.164 94.2199 447.682 95.7019C446.2 97.1839 444.191 98.0175 442.095 98.0199ZM355.139 20.6874C353.225 20.6895 351.391 21.4507 350.037 22.8038C348.684 24.1569 347.923 25.9915 347.921 27.9051V90.1148C347.923 92.0284 348.684 93.863 350.037 95.2161C351.391 96.5692 353.225 97.3303 355.139 97.3325H442.095C444.008 97.3303 445.843 96.5692 447.196 95.2161C448.549 93.863 449.31 92.0284 449.313 90.1148V27.9051C449.31 25.9915 448.549 24.1569 447.196 22.8038C445.843 21.4507 444.008 20.6895 442.095 20.6874H355.139Z" fill="#3F3D56"/>
<path d="M378.797 29.472H365.049C364.684 29.472 364.335 29.3272 364.077 29.0693C363.819 28.8115 363.674 28.4618 363.674 28.0972C363.674 27.7326 363.819 27.3829 364.077 27.1251C364.335 26.8673 364.684 26.7224 365.049 26.7224H378.797C379.162 26.7224 379.511 26.8673 379.769 27.1251C380.027 27.3829 380.172 27.7326 380.172 28.0972C380.172 28.4618 380.027 28.8115 379.769 29.0693C379.511 29.3272 379.162 29.472 378.797 29.472Z" fill="#CCCCCC"/>
<path d="M408.699 60.4051H365.049C364.684 60.4051 364.335 60.2603 364.077 60.0024C363.819 59.7446 363.674 59.3949 363.674 59.0303C363.674 58.6657 363.819 58.316 364.077 58.0582C364.335 57.8004 364.684 57.6555 365.049 57.6555H408.699C409.064 57.6555 409.413 57.8004 409.671 58.0582C409.929 58.316 410.074 58.6657 410.074 59.0303C410.074 59.3949 409.929 59.7446 409.671 60.0024C409.413 60.2603 409.064 60.4051 408.699 60.4051Z" fill="#CCCCCC"/>
<path d="M372.781 51.726C377.872 51.726 381.999 47.5991 381.999 42.5083C381.999 37.4175 377.872 33.2906 372.781 33.2906C367.69 33.2906 363.563 37.4175 363.563 42.5083C363.563 47.5991 367.69 51.726 372.781 51.726Z" fill="#00A9FF"/>
<path d="M365.737 86.6595H363.674V87.3469H365.737V86.6595Z" fill="#3F3D56"/>
<path d="M426.286 87.3469H421.961V86.6595H426.286V87.3469ZM417.636 87.3469H413.311V86.6595H417.636V87.3469ZM408.986 87.3469H404.661V86.6595H408.986V87.3469ZM400.337 87.3469H396.012V86.6595H400.337L400.337 87.3469ZM391.687 87.3469H387.362V86.6595H391.687V87.3469ZM383.037 87.3469H378.712V86.6595H383.037L383.037 87.3469ZM374.387 87.3469H370.062V86.6595H374.387V87.3469Z" fill="#3F3D56"/>
<path d="M432.673 86.6595H430.611V87.3469H432.673V86.6595Z" fill="#3F3D56"/>
<path d="M398.677 74.4967H396.958V86.1825H398.677V74.4967Z" fill="#00A9FF"/>
<path d="M416.205 74.4967H414.486V86.1825H416.205V74.4967Z" fill="#00A9FF"/>
<path d="M424.798 81.0271H423.079V86.1826H424.798V81.0271Z" fill="#00A9FF"/>
<path d="M407.269 69.3413H405.55V86.1826H407.269V69.3413Z" fill="#00A9FF"/>
<path d="M240.918 97.8683C242.057 97.8683 242.98 96.945 242.98 95.8061C242.98 94.6672 242.057 93.7439 240.918 93.7439C239.779 93.7439 238.856 94.6672 238.856 95.8061C238.856 96.945 239.779 97.8683 240.918 97.8683Z" fill="#00A9FF"/>
<path d="M246.417 87.901C247.556 87.901 248.48 86.9777 248.48 85.8388C248.48 84.6999 247.556 83.7766 246.417 83.7766C245.279 83.7766 244.355 84.6999 244.355 85.8388C244.355 86.9777 245.279 87.901 246.417 87.901Z" fill="#00A9FF"/>
<path d="M306.909 79.996C308.048 79.996 308.971 79.0727 308.971 77.9338C308.971 76.7949 308.048 75.8716 306.909 75.8716C305.77 75.8716 304.846 76.7949 304.846 77.9338C304.846 79.0727 305.77 79.996 306.909 79.996Z" fill="#00A9FF"/>
<path d="M259.572 225.349L262.683 225.349L264.162 213.352L259.572 213.352L259.572 225.349Z" fill="#FFB6B6"/>
<path d="M259.463 228.594L269.028 228.594V228.473C269.027 227.485 268.635 226.538 267.937 225.84C267.239 225.142 266.292 224.75 265.305 224.75L263.557 223.424L260.297 224.75L259.462 224.75L259.463 228.594Z" fill="#2F2E41"/>
<path d="M282.944 225.349L286.054 225.349L287.534 213.352L282.943 213.352L282.944 225.349Z" fill="#FFB6B6"/>
<path d="M282.834 228.594L292.399 228.594V228.473C292.399 227.485 292.007 226.538 291.309 225.84C290.61 225.142 289.664 224.75 288.676 224.75L286.929 223.424L283.669 224.75L282.834 224.75L282.834 228.594Z" fill="#2F2E41"/>
<path d="M259.451 127.752L264.971 126.961C266.838 130.083 267.502 138.392 267.502 138.392L272.904 151.232C273.262 151.475 273.549 151.808 273.737 152.198C273.925 152.587 274.008 153.019 273.976 153.45C273.944 153.882 273.799 154.297 273.555 154.655C273.312 155.012 272.979 155.299 272.589 155.487C272.199 155.675 271.767 155.756 271.336 155.724C270.905 155.691 270.49 155.546 270.132 155.302C269.775 155.058 269.489 154.725 269.301 154.335C269.114 153.945 269.033 153.513 269.066 153.081L260.196 138.136L259.451 127.752Z" fill="#FFB6B6"/>
<path d="M262.443 112.427C261.589 112.559 260.774 112.878 260.057 113.361C259.34 113.844 258.738 114.479 258.294 115.221C257.85 115.963 257.576 116.794 257.489 117.654C257.403 118.515 257.507 119.383 257.795 120.199L258.967 123.519C258.967 123.519 257.491 133.516 259.923 136.338L267.385 135.663C267.385 135.663 266.021 130.619 267.068 128.179C267.709 126.684 267.674 121.522 267.042 117.323C266.559 114.117 265.647 111.931 262.443 112.427Z" fill="#3F3D56"/>
<path d="M288.177 142.549C288.177 142.549 293.929 148.159 292.7 149.454C291.472 150.75 288.662 152.565 291.27 152.86C293.878 153.156 294.96 153.797 292.7 154.336C290.441 154.874 290.79 156.258 290.79 156.258C290.79 156.258 294.192 172.451 291.614 183.106C291.614 183.106 290.179 212.208 289.279 214.474C288.379 216.74 288.035 215.366 288.379 216.74C288.722 218.115 289.41 215.709 288.722 218.115C288.347 219.372 288.05 220.651 287.833 221.944L281.11 220.913C281.11 220.913 280.027 217.501 281.11 216.605C282.192 215.709 283.163 216.261 281.99 214.267C280.817 212.272 280.474 215.022 280.817 212.272C281.161 209.523 279.726 194.652 281.99 186.792L277.806 164.74L271.164 187.574C271.164 187.574 267.64 215.462 266.496 216.445C265.351 217.428 263.632 215.709 265.351 217.428C267.069 219.146 267.039 218.851 267.069 219.146C267.389 222.299 257.549 218.851 257.549 218.851C257.604 218.05 257.604 217.246 257.549 216.445C257.446 215.709 258.684 215.474 257.549 214.732C256.415 213.991 258.103 214.726 258.103 214.726C258.103 214.726 260.641 194.152 262.571 187.918L264.805 157.556C264.805 157.556 264.947 158.162 264.805 156.69C264.663 155.218 263.632 156.249 264.663 155.218C265.695 154.187 266.382 153.662 265.695 152.893C265.007 152.125 263.111 150.57 264.231 149.629C265.351 148.688 267.555 142.549 267.555 142.549L289.036 142.721" fill="#2F2E41"/>
<path d="M280.1 108.463L276.227 104.102L270.107 104.782L266.188 110.266C264.103 110.745 262.28 112.006 261.096 113.788C259.911 115.571 259.455 117.739 259.82 119.848C261.341 128.604 266.508 137.096 264.802 141.416C262.212 147.974 262.054 150.648 268.254 149.729C274.454 148.809 295.225 146.69 291.198 142.663C287.171 138.636 286.287 131.906 286.287 131.906L286.125 116.51C286.296 115.582 286.274 114.628 286.058 113.709C285.843 112.789 285.439 111.925 284.874 111.169C284.308 110.413 283.591 109.782 282.77 109.317C281.949 108.851 281.04 108.561 280.1 108.463Z" fill="#3F3D56"/>
<path d="M279.042 125.346L284.562 124.555C286.429 127.677 287.092 135.986 287.092 135.986L292.495 148.826C292.852 149.069 293.14 149.402 293.328 149.792C293.516 150.181 293.598 150.613 293.567 151.044C293.535 151.476 293.39 151.891 293.146 152.249C292.903 152.606 292.57 152.893 292.18 153.081C291.79 153.269 291.358 153.35 290.927 153.318C290.496 153.285 290.08 153.14 289.723 152.896C289.366 152.652 289.079 152.319 288.892 151.929C288.705 151.539 288.624 151.107 288.657 150.675L279.787 135.73L279.042 125.346Z" fill="#FFB6B6"/>
<path d="M282.034 110.021C281.18 110.153 280.365 110.472 279.648 110.955C278.931 111.438 278.329 112.074 277.885 112.816C277.441 113.558 277.167 114.388 277.08 115.249C276.994 116.109 277.099 116.977 277.386 117.793L278.558 121.113C278.558 121.113 277.082 131.11 279.514 133.932L286.976 133.257C286.976 133.257 285.612 128.213 286.659 125.773C287.301 124.278 287.265 119.116 286.633 114.917C286.15 111.711 285.238 109.525 282.034 110.021Z" fill="#3F3D56"/>
<path d="M271.484 103.727C275.569 103.727 278.881 100.415 278.881 96.329C278.881 92.2435 275.569 88.9315 271.484 88.9315C267.398 88.9315 264.086 92.2435 264.086 96.329C264.086 100.415 267.398 103.727 271.484 103.727Z" fill="#FFB6B6"/>
<path d="M270.123 103.57C272.184 103.054 272.254 102.466 274.314 101.949C274.97 101.785 275.73 101.526 275.925 100.878C275.971 100.641 275.961 100.397 275.897 100.164C275.833 99.9318 275.715 99.7173 275.554 99.5377C275.229 99.1821 274.925 98.8084 274.643 98.4183C274.456 98.1049 274.349 97.7508 274.329 97.3864C274.31 97.0221 274.38 96.6585 274.532 96.3272C274.685 95.9958 274.916 95.7066 275.206 95.4846C275.495 95.2626 275.834 95.1144 276.194 95.0529C276.831 94.9438 277.489 95.1127 278.13 95.031C279.01 94.9189 280.304 91.6551 279.74 90.9708C279.191 90.3046 278.29 89.9072 277.987 89.0988C277.789 88.5701 277.897 87.9789 277.809 87.4212C277.678 86.5944 276.005 88.8837 276.228 88.0768C276.774 86.0973 267.531 85.7856 266.569 88.3251C266.209 89.2742 265.235 89.425 264.487 90.1101C263.996 90.5591 262.822 91.9959 262.652 92.7703C262.511 93.5533 262.538 94.3574 262.731 95.1292C263.499 98.747 264.768 101.953 268.145 103.46" fill="#2F2E41"/>
<path d="M211.788 229.063L345.737 229.169C345.79 229.169 345.844 229.158 345.894 229.138C345.943 229.117 345.989 229.087 346.027 229.049C346.065 229.011 346.095 228.966 346.116 228.916C346.136 228.867 346.147 228.813 346.147 228.759C346.147 228.706 346.136 228.652 346.116 228.602C346.095 228.553 346.065 228.508 346.027 228.47C345.989 228.432 345.943 228.401 345.894 228.381C345.844 228.36 345.79 228.35 345.737 228.35L211.788 228.245C211.734 228.244 211.681 228.255 211.631 228.275C211.581 228.296 211.536 228.326 211.498 228.364C211.46 228.402 211.429 228.447 211.409 228.497C211.388 228.547 211.377 228.6 211.377 228.654C211.377 228.708 211.388 228.761 211.409 228.811C211.429 228.86 211.46 228.906 211.498 228.944C211.536 228.982 211.581 229.012 211.631 229.032C211.681 229.053 211.734 229.063 211.788 229.063Z" fill="#CACACA"/>
</g>
<defs>
<clipPath id="clip0_69_2868">
<rect width="209.564" height="159.964" fill="white" transform="translate(240 392.518)"/>
</clipPath>
<clipPath id="clip1_69_2868">
<rect width="210.423" height="147.268" fill="white" transform="translate(20 247.975)"/>
</clipPath>
<clipPath id="clip2_69_2868">
<rect width="240" height="209.168" fill="white" transform="translate(210 20)"/>
</clipPath>
</defs>
</svg>
